<svg version="1.1" id="Layer_1" xmlns="http://www.w3.org/2000/svg" xmlns:xlink="http://www.w3.org/1999/xlink" x="0px" y="0px"
	 width="100%" viewBox="0 0 422 458" enable-background="new 0 0 422 458" xml:space="preserve">
<path fill="#F5F3EE" opacity="1.000000" stroke="none" 
	d="
M315.000000,1.000000 
	C350.989899,1.000000 386.979797,1.000000 422.984863,1.000000 
	C422.984863,153.613724 422.984863,306.227448 422.984863,458.920593 
	C282.425781,458.920593 141.851517,458.920593 1.138626,458.920593 
	C1.138626,306.333405 1.138626,153.666733 1.138626,1.000000 
	C36.750820,1.000000 72.407555,1.000000 108.532135,1.250916 
	C109.000069,1.669108 109.000160,1.836385 108.735306,2.203668 
	C74.003250,37.061127 39.532837,71.715302 5.094411,106.401230 
	C4.450950,107.049324 4.187265,108.074486 3.563724,109.291870 
	C3.417858,115.768669 3.454653,121.877304 3.382861,128.442749 
	C3.252588,201.726929 3.205782,274.554352 3.331984,347.381500 
	C3.335723,349.539154 4.648443,352.196991 6.207549,353.775482 
	C39.219772,387.197937 72.322342,420.531555 105.558983,453.730652 
	C107.306694,455.476410 110.393730,456.770447 112.861137,456.776825 
	C178.355881,456.946228 243.851181,456.894592 309.346222,456.988617 
	C312.937775,456.993774 315.524292,456.041901 318.115204,453.433533 
	C351.234375,420.091461 384.489105,386.884033 417.626801,353.560303 
	C418.886017,352.294037 419.911987,350.231384 420.008972,348.482269 
	C420.275696,343.672089 419.989868,338.831238 420.002747,333.543335 
	C420.018921,328.721497 419.955078,324.358795 419.968262,319.533142 
	C420.044952,268.696472 420.050964,218.322723 420.035431,167.948990 
	C420.033691,162.301178 419.910126,156.653412 419.927307,150.573853 
	C419.960266,148.095352 419.908966,146.048630 419.936554,143.542786 
	C419.940277,138.721802 419.865082,134.359940 419.861450,129.667175 
	C419.881775,128.890518 419.830536,128.444778 419.858948,127.536926 
	C419.940247,122.978783 419.618774,118.850449 420.024445,114.794853 
	C420.542725,109.614014 418.652191,105.936165 414.238037,102.990997 
	C412.072571,100.779922 410.053680,98.834969 407.928955,96.628067 
	C407.252106,95.892975 406.681061,95.419838 405.964233,94.643867 
	C399.898285,88.492409 393.978149,82.643776 387.923492,76.505768 
	C385.950348,74.451340 384.111755,72.686287 382.107605,70.614792 
	C374.073669,62.494717 366.205322,54.681091 358.191010,46.562019 
	C356.415619,44.698784 354.786194,43.140995 353.027924,41.289078 
	C340.235321,28.085869 327.571594,15.176785 314.934326,1.951025 
	C314.973846,1.422899 314.986908,1.211450 315.000000,1.000000 
z"/>
<path fill="#F1F1EC" opacity="1.000000" stroke="none" 
	d="
M109.000252,2.003662 
	C109.000160,1.836385 109.000069,1.669108 108.999985,1.250916 
	C177.354233,1.000000 245.708450,1.000000 314.531342,1.000000 
	C314.986908,1.211450 314.973846,1.422899 314.473572,1.916039 
	C296.653931,2.179479 279.321533,2.159427 261.989136,2.143320 
	C210.992844,2.095928 159.996552,2.050101 109.000252,2.003662 
z"/>
<path fill="#787878" opacity="1.000000" stroke="none" 
	d="
M419.922668,334.002533 
	C419.989868,338.831238 420.275696,343.672089 420.008972,348.482269 
	C419.911987,350.231384 418.886017,352.294037 417.626801,353.560303 
	C384.489105,386.884033 351.234375,420.091461 318.115204,453.433533 
	C315.524292,456.041901 312.937775,456.993774 309.346222,456.988617 
	C243.851181,456.894592 178.355881,456.946228 112.861137,456.776825 
	C110.393730,456.770447 107.306694,455.476410 105.558983,453.730652 
	C72.322342,420.531555 39.219772,387.197937 6.207549,353.775482 
	C4.648443,352.196991 3.335723,349.539154 3.331984,347.381500 
	C3.205782,274.554352 3.252588,201.726929 3.715993,128.442657 
	C5.954053,127.987099 7.750396,127.988396 9.660300,128.337585 
	C10.187363,129.479721 10.600863,130.273972 10.901363,131.434845 
	C10.212494,134.156525 9.136804,136.510895 9.133666,138.866714 
	C9.049636,201.964142 9.078953,265.061737 9.081049,328.159271 
	C9.081531,342.680023 9.068016,342.680023 24.389462,341.792664 
	C26.591825,341.903564 28.358305,341.929810 30.438751,341.888306 
	C31.180710,341.810333 31.608704,341.800079 32.493629,341.834473 
	C37.961887,341.837219 42.973213,341.795319 48.453667,341.769653 
	C59.889721,341.842865 70.856644,341.899872 82.275925,341.968140 
	C84.538162,341.971222 86.348030,341.963043 88.614548,341.905457 
	C101.430946,341.866852 113.790947,341.920074 126.150162,341.843750 
	C128.054413,341.831970 129.955017,341.224976 132.116333,341.212830 
	C137.345795,341.666443 142.316238,341.800415 147.734741,341.879547 
	C157.107620,341.814697 166.032440,341.804718 175.394745,341.866821 
	C177.895844,341.867188 179.959442,341.795441 182.487823,341.768494 
	C191.275909,341.793030 199.599228,341.772766 208.364838,341.829041 
	C210.607407,341.850250 212.407654,341.794922 214.660736,341.789307 
	C223.726654,341.809235 232.339752,341.779541 241.381134,341.835114 
	C243.831802,341.895050 245.854187,341.869720 248.351685,341.880066 
	C257.830780,341.930817 266.834808,341.945923 276.270081,341.976685 
	C281.625732,341.974335 286.550110,341.956299 291.913269,341.923218 
	C306.450195,341.920166 320.548370,341.932251 335.102783,341.954987 
	C337.375916,341.968781 339.192810,341.971893 341.477966,341.979065 
	C352.999695,341.897675 364.053101,341.812225 375.553589,341.799805 
	C380.942169,341.847656 385.883728,341.822418 391.171204,341.802277 
	C392.204834,341.853516 392.892456,341.899628 393.987030,341.895325 
	C394.920624,341.710083 395.447266,341.575256 396.396240,341.558838 
	C399.551270,341.486023 402.283997,341.294769 405.472443,341.122284 
	C415.368561,341.086823 413.912842,342.091034 414.030090,332.933319 
	C414.051208,331.284576 414.156250,329.636902 414.556335,328.077850 
	C416.567627,330.112152 418.245148,332.057343 419.922668,334.002533 
M258.167114,427.917633 
	C258.167114,435.484528 258.167114,443.051453 258.167114,450.852509 
	C276.287750,450.852509 293.085999,450.921295 309.881439,450.735992 
	C311.402466,450.719208 313.173828,449.335815 314.377533,448.134674 
	C343.261414,419.311401 372.086792,390.429535 400.905579,361.541138 
	C402.088074,360.355774 403.103485,359.003754 404.815521,357.008087 
	C402.121674,357.008087 400.646057,356.935333 399.179352,357.018799 
	C368.359222,358.773285 337.857635,362.537903 308.099945,371.180725 
	C283.513062,378.321716 259.933350,387.733246 238.347595,401.693115 
	C236.626709,402.806061 234.108719,404.436890 233.993835,405.978577 
	C233.506653,412.515381 233.787155,419.109406 233.787155,426.211090 
	C242.082779,426.211090 249.552048,426.211090 257.255035,426.563202 
	C257.451874,426.776398 257.690247,426.921204 258.167114,427.917633 
M164.829681,431.620667 
	C164.915710,429.870148 165.001724,428.119598 165.115799,425.798340 
	C173.397964,425.798340 181.138000,425.798340 189.202438,425.798340 
	C189.202438,419.543457 189.459595,413.873962 189.061310,408.250916 
	C188.924088,406.313660 187.630676,403.666199 186.050430,402.752045 
	C175.970230,396.920990 165.951187,390.850342 155.378601,386.028046 
	C114.659142,367.455475 71.476982,359.370758 27.041889,357.047180 
	C24.481688,356.913300 21.908388,357.029877 17.795914,357.029877 
	C24.581947,363.836029 30.376736,369.637299 36.159893,375.450134 
	C60.247597,399.661285 84.292267,423.915649 108.504555,448.001465 
	C110.151237,449.639587 113.034195,450.818909 115.364754,450.857758 
	C130.021362,451.101959 144.684402,450.971832 159.345261,450.937866 
	C161.092987,450.933838 162.840332,450.762909 164.831314,450.656311 
	C164.831314,444.227997 164.831314,438.409668 164.829681,431.620667 
M172.555939,363.749878 
	C169.957550,363.749878 167.359146,363.749878 164.214935,363.749878 
	C164.214935,366.920135 164.043640,369.397217 164.273926,371.836334 
	C164.432846,373.519653 164.630188,376.044250 165.696457,376.661041 
	C173.133133,380.962799 180.801224,384.864532 188.824844,389.122406 
	C188.824844,380.506531 188.824844,372.341980 188.824844,363.750214 
	C183.479080,363.750214 178.510361,363.750214 172.555939,363.749878 
M259.034546,372.152557 
	C259.034546,369.545380 259.034546,366.938171 259.034546,364.033325 
	C250.402237,364.033325 242.361710,364.033325 234.046387,364.033325 
	C234.046387,372.354919 234.046387,380.369843 234.046387,388.714050 
	C242.078796,384.617554 249.767273,380.799957 257.313141,376.718719 
	C258.269409,376.201477 258.478516,374.302734 259.034546,372.152557 
M286.143799,364.754425 
	C286.152740,364.320831 286.161682,363.887207 286.170624,363.453613 
	C279.949066,363.453613 273.727509,363.453613 267.451843,363.453613 
	C267.451843,366.583191 267.451843,368.958282 267.451843,371.873657 
	C273.787750,369.500336 279.643005,367.307098 286.143799,364.754425 
M156.103317,365.657501 
	C155.581741,364.945129 155.075089,363.626587 154.536285,363.613312 
	C148.551727,363.465820 142.562195,363.520416 136.574020,363.520416 
	C136.514496,363.911041 136.454971,364.301636 136.395447,364.692261 
	C142.759781,367.065887 149.124100,369.439545 156.117050,372.047638 
	C156.117050,369.773834 156.117050,368.148651 156.103317,365.657501 
z"/>
<path fill="#787878" opacity="1.000000" stroke="none" 
	d="
M108.735306,2.203668 
	C159.996552,2.050101 210.992844,2.095928 261.989136,2.143320 
	C279.321533,2.159427 296.653931,2.179479 314.447083,2.232714 
	C327.571594,15.176785 340.235321,28.085869 352.960999,41.678047 
	C352.315887,44.009129 351.608917,45.657120 350.603455,47.134056 
	C339.222534,35.891682 327.927521,25.021437 317.167206,13.645452 
	C313.128235,9.375385 308.970551,7.943673 303.246429,7.959759 
	C240.583649,8.135858 177.920135,8.047880 115.257248,8.202376 
	C113.109085,8.207672 110.455795,9.490383 108.897621,11.041355 
	C91.535301,28.323431 74.397675,45.830917 57.087646,63.165970 
	C41.433155,78.843102 25.640322,94.382088 9.524090,109.934700 
	C7.341923,109.566185 5.544152,109.244949 3.746382,108.923714 
	C4.187265,108.074486 4.450950,107.049324 5.094411,106.401230 
	C39.532837,71.715302 74.003250,37.061127 108.735306,2.203668 
z"/>
<path fill="#787878" opacity="1.000000" stroke="none" 
	d="
M419.843048,151.005615 
	C419.910126,156.653412 420.033691,162.301178 420.035431,167.948990 
	C420.050964,218.322723 420.044952,268.696472 419.564636,319.533813 
	C417.465942,320.002136 415.847992,320.006866 414.159302,319.545929 
	C414.070129,291.811401 414.022003,264.542511 414.041351,237.273682 
	C414.062012,208.178787 414.146423,179.083923 414.565674,150.000214 
	C416.566559,150.342773 418.204803,150.674194 419.843048,151.005615 
z"/>
<path fill="#787878" opacity="1.000000" stroke="none" 
	d="
M358.336945,46.867462 
	C366.205322,54.681091 374.073669,62.494717 381.743835,70.639099 
	C380.990479,71.738388 379.835815,73.046036 379.969696,73.194901 
	C382.114349,75.579659 384.423370,77.816574 387.310730,80.702591 
	C387.707245,78.629204 387.882629,77.712181 388.058014,76.795151 
	C393.978149,82.643776 399.898285,88.492409 405.692139,94.860046 
	C406.043915,96.919502 406.521942,98.459961 407.047119,100.320572 
	C408.063232,101.760597 409.032227,102.880455 409.742737,104.179886 
	C409.266144,104.713959 409.048035,105.068443 408.527405,105.258392 
	C389.709778,86.430069 371.194611,67.766289 353.031433,48.963974 
	C355.034576,48.172783 356.685760,47.520123 358.336945,46.867462 
z"/>
<path fill="#7C7C7B" opacity="1.000000" stroke="none" 
	d="
M408.829926,105.422928 
	C409.048035,105.068443 409.266144,104.713959 410.083008,104.329681 
	C411.916077,103.952301 413.150360,103.604706 414.384644,103.257111 
	C418.652191,105.936165 420.542725,109.614014 420.024445,114.794853 
	C419.618774,118.850449 419.940247,122.978783 419.525879,127.546242 
	C418.408783,128.678467 417.704407,129.339249 416.527740,130.000519 
	C415.110931,130.006287 414.166382,130.011566 413.173462,129.613861 
	C413.072815,125.414337 412.802795,121.605095 413.023193,117.824432 
	C413.301575,113.049187 412.959991,108.637566 408.829926,105.422928 
z"/>
<path fill="#717171" opacity="1.000000" stroke="none" 
	d="
M3.563723,109.291870 
	C5.544152,109.244949 7.341923,109.566185 9.486166,110.402809 
	C9.737337,116.608704 9.642038,122.299202 9.546740,127.989700 
	C7.750396,127.988396 5.954053,127.987099 3.824579,127.985870 
	C3.454653,121.877304 3.417858,115.768669 3.563723,109.291870 
z"/>
<path fill="#7D7D7D" opacity="1.000000" stroke="none" 
	d="
M413.221863,130.016846 
	C414.166382,130.011566 415.110931,130.006287 416.876587,130.000458 
	C418.395142,129.999298 419.092529,129.998688 419.789917,129.998077 
	C419.865082,134.359940 419.940277,138.721802 419.533386,143.542480 
	C417.433411,143.999710 415.815552,143.998108 414.132874,143.549713 
	C413.404449,139.047638 412.740753,134.992371 412.267883,130.891724 
	C412.713074,130.569855 412.967468,130.293350 413.221863,130.016846 
z"/>
<path fill="#7C7C7B" opacity="1.000000" stroke="none" 
	d="
M414.230011,320.011597 
	C415.847992,320.006866 417.465942,320.002136 419.487579,319.996765 
	C419.955078,324.358795 420.018921,328.721497 420.002747,333.543335 
	C418.245148,332.057343 416.567627,330.112152 414.493774,327.638062 
	C414.141632,324.743317 414.185822,322.377472 414.230011,320.011597 
z"/>
<path fill="#7C7C7B" opacity="1.000000" stroke="none" 
	d="
M414.197662,143.996521 
	C415.815552,143.998108 417.433411,143.999710 419.454468,144.001602 
	C419.908966,146.048630 419.960266,148.095352 419.927307,150.573853 
	C418.204803,150.674194 416.566559,150.342773 414.504761,149.575287 
	C414.120026,147.424973 414.158844,145.710739 414.197662,143.996521 
z"/>
<path fill="#7C7C7B" opacity="1.000000" stroke="none" 
	d="
M387.923492,76.505775 
	C387.882629,77.712181 387.707245,78.629204 387.310730,80.702591 
	C384.423370,77.816574 382.114349,75.579659 379.969696,73.194901 
	C379.835815,73.046036 380.990479,71.738388 381.909424,70.945549 
	C384.111755,72.686287 385.950348,74.451340 387.923492,76.505775 
z"/>
<path fill="#7D7D7D" opacity="1.000000" stroke="none" 
	d="
M414.238037,102.990990 
	C413.150360,103.604706 411.916077,103.952301 410.341492,104.150101 
	C409.032227,102.880455 408.063232,101.760597 407.179626,100.017258 
	C407.521606,98.559181 407.778198,97.724602 408.034790,96.890015 
	C410.053680,98.834969 412.072571,100.779922 414.238037,102.990990 
z"/>
<path fill="#7C7C7B" opacity="1.000000" stroke="none" 
	d="
M358.191010,46.562016 
	C356.685760,47.520123 355.034576,48.172783 352.792236,48.861557 
	C351.768066,48.366817 351.334991,47.835957 350.901917,47.305099 
	C351.608917,45.657120 352.315887,44.009129 353.089844,41.972176 
	C354.786194,43.140995 356.415619,44.698784 358.191010,46.562016 
z"/>
<path fill="#7C7C7B" opacity="1.000000" stroke="none" 
	d="
M407.928955,96.628067 
	C407.778198,97.724602 407.521606,98.559181 407.132507,99.697090 
	C406.521942,98.459961 406.043915,96.919502 405.837952,95.162872 
	C406.681061,95.419838 407.252106,95.892975 407.928955,96.628067 
z"/>
<path fill="#7C7C7B" opacity="1.000000" stroke="none" 
	d="
M419.861450,129.667175 
	C419.092529,129.998688 418.395142,129.999298 417.348877,129.999969 
	C417.704407,129.339249 418.408783,128.678467 419.446228,128.008362 
	C419.830536,128.444778 419.881775,128.890518 419.861450,129.667175 
z"/>
<path fill="#F4F3EC" opacity="1.000000" stroke="none" 
	d="
M275.838806,341.961029 
	C266.834808,341.945923 257.830780,341.930817 248.216125,341.576996 
	C240.298752,325.159027 232.992020,309.079742 225.541077,292.683167 
	C223.559265,293.867340 222.328720,294.602631 221.186859,295.284912 
	C227.860428,310.972809 234.406647,326.361328 240.952850,341.749847 
	C232.339752,341.779541 223.726654,341.809235 214.611740,341.347046 
	C214.109940,326.089050 214.109940,311.322998 214.109940,296.129364 
	C211.812820,296.258240 210.264114,296.345093 207.922531,296.476440 
	C207.922531,311.844543 207.922531,326.798523 207.922531,341.752502 
	C199.599228,341.772766 191.275909,341.793030 182.524109,341.423279 
	C188.504471,325.791382 194.913315,310.549408 201.296692,295.368042 
	C197.840302,292.560272 196.222656,293.728363 194.753540,297.107727 
	C188.258270,312.048370 181.573456,326.906647 174.957245,341.794739 
	C166.032440,341.804718 157.107620,341.814697 147.655670,341.446716 
	C146.190186,336.279755 147.741196,332.828827 151.434830,329.333282 
	C163.887253,317.548615 175.894287,305.293091 188.055679,293.201569 
	C189.186035,292.077728 190.203247,290.840057 191.450287,289.458862 
	C189.891922,288.155457 188.672516,287.135529 186.063034,284.952911 
	C173.264206,298.324463 160.583618,311.572510 146.800476,325.972412 
	C146.800476,315.237946 146.800476,306.135712 146.868011,297.072876 
	C146.935562,297.112244 147.061340,297.019318 147.409149,296.922668 
	C159.741821,291.632141 171.726669,286.438263 184.110184,281.071625 
	C183.278076,279.391663 182.589310,278.001160 181.688873,276.183289 
	C169.919098,281.198853 158.515991,286.058136 147.044510,290.458496 
	C146.976135,283.574951 146.976135,277.150330 146.976135,270.147583 
	C158.415466,270.147583 169.296768,270.147583 180.415314,270.147583 
	C180.415314,267.993439 180.415314,266.432617 180.415314,264.398560 
	C169.274567,264.398560 158.396133,264.398560 147.102661,264.398560 
	C147.102661,257.166443 147.102661,250.398590 147.482819,243.686707 
	C159.078644,248.421127 170.294312,253.099548 181.758591,257.881683 
	C182.378326,255.989517 182.874893,254.473434 183.468750,252.660263 
	C171.160675,247.369232 159.170349,242.214813 147.083557,236.596405 
	C146.987106,227.262680 146.987106,218.392929 146.987106,208.293121 
	C161.048782,222.037338 174.163101,234.855560 187.442032,247.834702 
	C188.940063,246.213409 190.025467,245.038681 190.220810,244.827271 
	C177.970657,232.031418 166.213165,219.328186 153.935669,207.149185 
	C149.497314,202.746445 145.677505,198.685440 146.748062,191.519104 
	C146.784378,186.050613 146.729294,181.039368 146.782211,175.653015 
	C146.812592,174.508636 146.734955,173.739380 146.745178,172.511139 
	C146.758728,163.299728 146.684387,154.547287 146.715515,145.431122 
	C146.747177,141.762283 146.673355,138.457214 146.691818,134.797760 
	C146.869110,133.209106 146.954117,131.974823 147.304962,130.984085 
	C157.752228,154.013321 167.944901,176.793991 178.110840,199.586578 
	C184.064819,212.935730 189.976257,226.303864 196.051178,239.988571 
	C197.970520,239.177628 199.411667,238.568726 201.237564,237.797272 
	C200.088669,235.176132 199.111649,232.922821 198.115341,230.678070 
	C191.702438,216.229294 185.311111,201.770859 178.863708,187.337494 
	C168.283386,163.652084 157.665741,139.983337 146.998413,115.810410 
	C146.778397,108.877121 146.623779,102.440994 146.587173,95.550308 
	C146.688858,83.981071 146.575165,72.864716 146.766602,61.753624 
	C146.793701,60.181046 147.946915,57.689323 149.186447,57.216808 
	C168.096039,50.008415 187.649872,46.020645 207.985504,46.712662 
	C208.002136,110.024239 208.002136,172.886490 208.002136,236.196762 
	C210.471695,236.055679 212.030609,235.966614 214.044861,235.851547 
	C214.044861,231.291656 214.048065,227.156921 214.044403,223.022186 
	C213.992188,164.096832 213.939056,105.171486 214.342560,46.166977 
	C234.053665,46.406830 252.763885,49.749508 270.989197,55.982121 
	C274.371918,57.138927 275.974609,58.628262 275.858276,62.613274 
	C275.572601,72.399330 275.912994,82.203667 275.902954,92.460266 
	C275.859375,99.947586 275.914398,106.975296 275.853577,114.315002 
	C275.684113,115.067436 275.630432,115.507874 275.369446,116.204163 
	C257.234070,156.758728 239.305969,197.057434 221.231049,237.686234 
	C222.907761,238.433960 224.505463,239.146469 226.254028,239.926254 
	C226.962723,238.549042 227.542160,237.547318 228.009903,236.495895 
	C239.042847,211.694977 250.012573,186.865738 261.111206,162.094254 
	C265.801514,151.625763 270.758575,141.276764 275.653656,131.347412 
	C275.735840,153.610016 275.810089,175.398972 275.683441,197.186737 
	C275.673401,198.914734 274.665314,201.011734 273.444122,202.291168 
	C268.853729,207.100616 263.903656,211.564301 259.233826,216.300964 
	C250.169235,225.495377 241.203033,234.786789 231.973358,244.266815 
	C233.147202,245.386856 234.503784,246.681274 235.845627,247.961624 
	C248.255783,235.586853 260.198395,223.632751 272.230743,211.769623 
	C273.161102,210.852341 274.721863,210.574417 275.906311,210.329498 
	C275.889008,211.106003 275.955078,211.552322 275.927917,212.441238 
	C275.914520,215.590225 275.994385,218.296616 275.993866,221.447006 
	C275.981201,224.592209 276.048950,227.293427 276.021149,230.416168 
	C275.970245,232.559158 276.014923,234.280609 275.959778,236.266068 
	C275.755859,236.889313 275.651764,237.248520 275.203613,237.707214 
	C262.959686,242.929611 251.059830,248.052536 238.816559,253.323288 
	C239.810394,255.415329 240.570847,257.016083 241.220551,258.383728 
	C252.876831,253.481125 264.210175,248.714340 275.635437,244.414185 
	C275.837585,249.252899 275.947815,253.624954 275.963409,258.390503 
	C275.925751,259.856171 275.982758,260.928314 275.929932,262.425781 
	C274.268433,263.362701 272.722809,264.294739 271.164154,264.317017 
	C261.581268,264.454193 251.995422,264.385803 242.344025,264.385803 
	C242.344025,266.509369 242.344025,268.087708 242.344025,270.365845 
	C253.601593,270.365845 264.600281,270.365845 275.606537,270.365845 
	C275.777100,272.708710 275.896912,274.354248 275.923828,276.429840 
	C275.888214,278.906616 275.945465,280.953400 275.930237,283.448883 
	C275.824432,286.106781 275.791168,288.315979 275.383667,290.466492 
	C264.944550,286.171021 254.848038,282.007050 244.832275,277.657227 
	C241.395477,276.164612 239.527832,276.730377 239.134552,281.339752 
	C251.202820,286.376495 263.377625,291.457703 275.689575,296.907166 
	C275.917297,299.180481 276.007904,301.085480 276.003113,303.440826 
	C275.953186,307.261353 275.998657,310.631592 275.964569,314.447113 
	C275.885010,318.118011 275.885010,321.343628 275.885010,325.641907 
	C261.731293,311.774231 248.510666,298.820831 235.095200,285.676514 
	C233.519775,287.460388 232.574738,288.530487 231.501877,289.745331 
	C232.844025,291.156586 233.948578,292.380463 235.118408,293.538422 
	C247.060501,305.359253 258.833191,317.360565 271.064117,328.874969 
	C275.146240,332.717957 276.790588,336.666656 275.838806,341.961029 
M192.825455,262.554443 
	C191.196289,272.446594 194.956879,279.886353 203.582199,283.835052 
	C211.328247,287.381195 220.972488,285.213654 226.181915,278.605103 
	C231.233459,272.196838 231.778656,265.130585 228.107224,258.011810 
	C224.279175,250.589355 217.710159,247.281372 209.517120,248.030472 
	C201.063934,248.803375 195.486832,253.573822 192.825455,262.554443 
z"/>
<path fill="#214255" opacity="1.000000" stroke="none" 
	d="
M276.001556,92.000656 
	C275.912994,82.203667 275.572601,72.399330 275.858276,62.613274 
	C275.974609,58.628262 274.371918,57.138927 270.989197,55.982121 
	C252.763885,49.749508 234.053665,46.406830 213.931122,46.076645 
	C211.365158,46.131432 209.667023,46.197392 207.968887,46.263348 
	C187.649872,46.020645 168.096039,50.008415 149.186447,57.216808 
	C147.946915,57.689323 146.793701,60.181046 146.766602,61.753624 
	C146.575165,72.864716 146.688858,83.981071 146.247559,95.566483 
	C144.235397,96.359367 142.680878,96.681511 141.033188,96.546852 
	C140.983566,91.727974 141.027100,87.365883 141.410950,82.936203 
	C144.810028,80.258812 144.789062,77.948212 141.004333,75.534630 
	C140.925125,70.375450 140.925125,65.677200 140.925125,59.660854 
	C135.086075,62.626019 130.318695,65.046967 125.238129,67.559662 
	C123.529488,68.543518 122.134048,69.435638 120.388687,70.431351 
	C110.002335,77.625793 99.965897,84.716629 89.745720,91.515770 
	C87.234779,91.471024 84.306587,90.921570 82.705086,92.130142 
	C79.335258,94.673195 75.211960,97.487015 77.531059,103.287079 
	C74.109123,107.475990 70.903076,111.479599 67.413124,115.218185 
	C65.018433,117.783493 64.227081,120.049492 67.059563,122.925400 
	C65.433624,123.925964 63.949032,124.605385 62.129749,125.152496 
	C60.812542,125.628563 59.497784,126.012527 58.907787,126.886032 
	C56.872677,129.899048 54.927486,132.997421 53.239326,136.216064 
	C44.528179,152.824677 37.112415,169.921768 33.799843,188.969543 
	C33.402390,190.767319 33.238934,192.196838 32.866177,193.918518 
	C31.756002,202.922607 30.329613,211.619049 30.072441,220.349899 
	C29.643270,234.920120 29.962093,249.512360 29.964855,264.391876 
	C30.150080,265.217468 30.336460,265.746490 30.522839,266.275543 
	C31.027876,265.808289 31.532913,265.341064 32.485233,264.762390 
	C36.621803,264.728577 40.311089,264.806213 43.963902,265.252136 
	C43.618504,267.053558 43.309582,268.486664 42.549019,270.018921 
	C38.396946,270.073212 34.696510,270.028412 30.953854,269.693481 
	C30.482344,269.117767 30.053055,268.832153 29.623764,268.546570 
	C29.674137,269.341278 29.724510,270.135986 29.824059,271.401306 
	C29.829937,293.351257 29.786640,314.830597 29.279432,336.230621 
	C23.758062,334.996460 23.791533,338.295990 23.953579,341.708038 
	C9.068016,342.680023 9.081531,342.680023 9.081049,328.159271 
	C9.078953,265.061737 9.049636,201.964142 9.133666,138.866714 
	C9.136804,136.510895 10.212494,134.156525 11.053858,131.129761 
	C14.692661,125.915962 17.955156,121.286552 21.456045,116.845032 
	C67.456337,58.485165 127.660767,26.602015 201.814697,24.086121 
	C290.992950,21.060484 360.713379,58.470364 412.077087,130.937103 
	C412.740753,134.992371 413.404449,139.047638 414.132874,143.549713 
	C414.158844,145.710739 414.120026,147.424973 414.142090,149.564117 
	C414.146423,179.083923 414.062012,208.178787 414.041351,237.273682 
	C414.022003,264.542511 414.070129,291.811401 414.159302,319.545929 
	C414.185822,322.377472 414.141632,324.743317 414.160004,327.548950 
	C414.156250,329.636902 414.051208,331.284576 414.030090,332.933319 
	C413.912842,342.091034 415.368561,341.086823 405.475220,340.717468 
	C405.267944,338.338379 405.513641,336.382843 405.780212,334.261108 
	C401.276733,334.542816 397.585083,334.773743 393.776917,334.548828 
	C393.669373,313.065979 393.678375,292.038971 394.012878,271.037170 
	C395.456604,272.056000 396.574829,273.049622 397.847961,274.180908 
	C399.752197,272.429199 401.404816,270.908966 403.057434,269.388702 
	C402.869598,269.120331 402.681732,268.851959 402.493866,268.583588 
	C401.528290,268.866241 400.562683,269.148926 399.179413,269.553833 
	C398.796509,266.660248 398.443939,263.995911 398.064911,261.131653 
	C396.631012,261.424622 395.209503,261.715088 393.664337,261.585205 
	C393.467682,248.225525 393.756470,235.270676 393.201843,222.352020 
	C392.793091,212.830490 391.282867,203.356247 390.206818,193.480972 
	C389.789368,191.648560 389.428528,190.196106 389.095093,188.345764 
	C384.421875,165.004288 374.995453,144.131348 360.908417,123.968628 
	C355.773041,128.601807 351.822052,134.060516 346.933105,138.482162 
	C342.696960,142.313416 339.971893,146.194336 340.287720,152.008179 
	C338.305328,152.008179 336.718811,152.007111 334.909424,151.828339 
	C332.092072,153.756317 329.497498,155.862030 326.539734,157.979675 
	C324.768890,159.614792 323.361237,161.238007 321.805664,163.163574 
	C316.940186,167.991272 312.222656,172.516617 307.080444,177.029816 
	C305.429779,175.989716 304.203796,174.961777 303.158356,173.657898 
	C313.008728,163.840134 322.763550,154.381454 332.261078,144.671127 
	C333.768433,143.130005 334.804596,140.480698 334.883087,138.301407 
	C335.222687,128.874222 335.125610,119.431297 335.537903,109.986542 
	C337.466492,109.650856 339.044556,109.322723 340.724792,109.453171 
	C340.826965,118.233223 340.826965,126.554688 340.826965,136.258072 
	C347.448578,129.971954 352.829376,124.863800 358.580017,119.404533 
	C353.812592,113.689651 349.264771,108.238007 344.790466,102.336853 
	C344.649323,96.452965 338.356018,89.631767 333.253326,89.467834 
	C332.834534,89.454376 332.379456,90.572044 331.646820,90.996254 
	C321.582886,83.997887 311.813324,77.167404 301.852356,70.095970 
	C300.170502,69.094627 298.680115,68.334221 296.955292,67.336021 
	C291.995667,64.798737 287.270477,62.499252 281.475922,59.679375 
	C281.475922,70.869789 281.475922,80.938705 281.127502,91.023605 
	C279.186584,91.359947 277.594055,91.680305 276.001556,92.000656 
M405.016205,288.488892 
	C404.600861,287.207947 404.185547,285.927002 403.796906,284.728455 
	C400.166229,286.688721 400.166229,286.688721 403.331543,294.023254 
	C404.087585,292.121429 404.843658,290.219635 405.016205,288.488892 
M402.857697,300.109833 
	C404.181732,298.391235 405.505798,296.672607 407.501648,294.082001 
	C402.165802,296.485535 401.528015,297.441803 402.857697,300.109833 
M402.835876,305.509033 
	C402.420990,305.217316 402.006073,304.925568 401.591187,304.633850 
	C401.480255,305.065796 401.369293,305.497742 401.258331,305.929688 
	C401.743103,305.981445 402.227905,306.033203 402.835876,305.509033 
M406.835480,313.509003 
	C406.420746,313.217316 406.006012,312.925629 405.591278,312.633942 
	C405.480347,313.065796 405.369415,313.497650 405.258514,313.929504 
	C405.743103,313.981262 406.227722,314.033020 406.835480,313.509003 
M401.810150,311.422272 
	C401.805695,311.796143 401.801208,312.169983 401.796722,312.543854 
	C401.951813,312.545593 402.241730,312.557892 402.242554,312.547546 
	C402.271698,312.175537 402.273926,311.801392 401.810150,311.422272 
M405.462677,319.717529 
	C405.720673,319.988586 405.978668,320.259613 406.236664,320.530670 
	C406.348877,320.423767 406.461121,320.316864 406.573364,320.209991 
	C406.315033,319.938904 406.056732,319.667816 405.462677,319.717529 
M405.810303,276.422607 
	C405.805817,276.796387 405.801300,277.170135 405.796783,277.543915 
	C405.951843,277.545654 406.241669,277.557983 406.242462,277.547577 
	C406.271729,277.175690 406.273895,276.801697 405.810303,276.422607 
M406.577576,307.810059 
	C406.203705,307.805603 405.829803,307.801147 405.455933,307.796692 
	C405.454193,307.951813 405.441895,308.241760 405.452209,308.242584 
	C405.824188,308.271698 406.198303,308.273865 406.577576,307.810059 
M397.422089,284.189941 
	C397.796112,284.194427 398.170166,284.198914 398.544189,284.203400 
	C398.545929,284.048218 398.558289,283.758209 398.547913,283.757416 
	C398.175751,283.728180 397.801453,283.725983 397.422089,284.189941 
M401.810120,275.422272 
	C401.805603,275.796173 401.801117,276.170105 401.796631,276.544006 
	C401.951752,276.545776 402.241638,276.558105 402.242462,276.547729 
	C402.271637,276.175690 402.273895,275.801514 401.810120,275.422272 
z"/>
<path fill="#F3F2EB" opacity="1.000000" stroke="none" 
	d="
M412.267883,130.891724 
	C360.713379,58.470364 290.992950,21.060484 201.814697,24.086121 
	C127.660767,26.602015 67.456337,58.485165 21.456045,116.845032 
	C17.955156,121.286552 14.692661,125.915962 11.166859,130.763123 
	C10.600863,130.273972 10.187363,129.479721 9.660301,128.337585 
	C9.642038,122.299202 9.737337,116.608704 9.870562,110.450096 
	C25.640322,94.382088 41.433155,78.843102 57.087646,63.165970 
	C74.397675,45.830917 91.535301,28.323431 108.897621,11.041355 
	C110.455795,9.490383 113.109085,8.207672 115.257248,8.202376 
	C177.920135,8.047880 240.583649,8.135858 303.246429,7.959759 
	C308.970551,7.943673 313.128235,9.375385 317.167206,13.645452 
	C327.927521,25.021437 339.222534,35.891682 350.603455,47.134048 
	C351.334991,47.835957 351.768066,48.366817 352.440308,49.000092 
	C371.194611,67.766289 389.709778,86.430069 408.527405,105.258385 
	C412.959991,108.637566 413.301575,113.049187 413.023193,117.824432 
	C412.802795,121.605095 413.072815,125.414337 413.173462,129.613861 
	C412.967468,130.293350 412.713074,130.569855 412.267883,130.891724 
z"/>
<path fill="#F5F3EE" opacity="1.000000" stroke="none" 
	d="
M164.830505,432.106018 
	C164.831314,438.409668 164.831314,444.227997 164.831314,450.656311 
	C162.840332,450.762909 161.092987,450.933838 159.345261,450.937866 
	C144.684402,450.971832 130.021362,451.101959 115.364754,450.857758 
	C113.034195,450.818909 110.151237,449.639587 108.504555,448.001465 
	C84.292267,423.915649 60.247597,399.661285 36.159893,375.450134 
	C30.376736,369.637299 24.581947,363.836029 17.795914,357.029877 
	C21.908388,357.029877 24.481688,356.913300 27.041889,357.047180 
	C71.476982,359.370758 114.659142,367.455475 155.378601,386.028046 
	C165.951187,390.850342 175.970230,396.920990 186.050430,402.752045 
	C187.630676,403.666199 188.924088,406.313660 189.061310,408.250916 
	C189.459595,413.873962 189.202438,419.543457 189.202438,425.798340 
	C181.138000,425.798340 173.397964,425.798340 165.115799,425.798340 
	C165.001724,428.119598 164.915710,429.870148 164.830505,432.106018 
z"/>
<path fill="#F5F3ED" opacity="1.000000" stroke="none" 
	d="
M257.021332,426.211090 
	C249.552048,426.211090 242.082779,426.211090 233.787155,426.211090 
	C233.787155,419.109406 233.506653,412.515381 233.993835,405.978577 
	C234.108719,404.436890 236.626709,402.806061 238.347595,401.693115 
	C259.933350,387.733246 283.513062,378.321716 308.099945,371.180725 
	C337.857635,362.537903 368.359222,358.773285 399.179352,357.018799 
	C400.646057,356.935333 402.121674,357.008087 404.815521,357.008087 
	C403.103485,359.003754 402.088074,360.355774 400.905579,361.541138 
	C372.086792,390.429535 343.261414,419.311401 314.377533,448.134674 
	C313.173828,449.335815 311.402466,450.719208 309.881439,450.735992 
	C293.085999,450.921295 276.287750,450.852509 258.167114,450.852509 
	C258.167114,443.051453 258.167114,435.484528 258.044495,427.204834 
	C257.621704,426.398407 257.321503,426.304749 257.021332,426.211090 
z"/>
<path fill="#F5F4ED" opacity="1.000000" stroke="none" 
	d="
M393.687347,271.011993 
	C393.678375,292.038971 393.669373,313.065979 393.661041,334.937988 
	C393.747009,336.853973 393.832367,337.924927 393.804565,339.352234 
	C393.654297,340.454285 393.617188,341.200012 393.580109,341.945740 
	C392.892456,341.899628 392.204834,341.853516 390.946899,341.583801 
	C373.992584,334.209534 357.608521,327.058838 341.140747,319.451965 
	C341.057007,302.896698 341.057007,286.797607 341.057007,270.578613 
	C342.184387,270.385406 342.813507,270.184570 343.443054,270.183289 
	C359.098450,270.151672 374.753967,270.123383 390.409241,270.165039 
	C391.502686,270.167938 392.594666,270.716919 393.687347,271.011993 
z"/>
<path fill="#F4F2EC" opacity="1.000000" stroke="none" 
	d="
M30.996071,269.983612 
	C34.696510,270.028412 38.396946,270.073212 42.984200,270.116211 
	C54.464199,270.053253 65.057388,269.992065 75.938110,270.025024 
	C77.992058,270.159882 79.758469,270.200653 81.618652,270.685852 
	C81.692146,287.339874 81.671852,303.549469 81.296402,319.817657 
	C64.639740,327.180756 48.338223,334.485291 32.036701,341.789825 
	C31.608704,341.800079 31.180710,341.810333 30.408894,341.531433 
	C29.957829,339.598175 29.850586,337.954071 29.743343,336.309937 
	C29.786640,314.830597 29.829937,293.351257 30.032145,271.249451 
	C30.459394,270.412506 30.727732,270.198059 30.996071,269.983612 
z"/>
<path fill="#F4F3EB" opacity="1.000000" stroke="none" 
	d="
M334.646545,341.944305 
	C320.548370,341.932251 306.450195,341.920166 291.762451,341.603333 
	C283.018707,335.339020 280.123383,327.328796 281.786713,317.479919 
	C281.974518,316.367950 281.674347,315.173584 281.704651,313.567688 
	C281.729614,309.733154 281.650360,306.348389 281.664062,302.584473 
	C281.855896,301.434326 281.954773,300.663300 282.404785,299.970032 
	C300.099243,307.672485 317.442566,315.297150 334.859436,323.389832 
	C334.837494,329.886658 334.742004,335.915466 334.646545,341.944305 
z"/>
<path fill="#F4F3EC" opacity="1.000000" stroke="none" 
	d="
M131.857300,340.893250 
	C129.955017,341.224976 128.054413,341.831970 126.150162,341.843750 
	C113.790947,341.920074 101.430946,341.866852 88.563637,341.508850 
	C87.936272,340.104156 87.816467,339.046661 87.785004,337.530273 
	C87.946251,332.322052 88.019157,327.572693 88.438232,322.761414 
	C92.744118,320.999725 96.706314,319.305664 100.663094,317.599091 
	C114.052544,311.824127 127.440094,306.044800 140.881439,300.779297 
	C140.954727,306.265015 140.549988,311.284790 141.084564,316.202393 
	C142.160431,326.099426 140.815491,334.855133 131.857300,340.893250 
z"/>
<path fill="#264559" opacity="1.000000" stroke="none" 
	d="
M335.102783,341.954987 
	C334.742004,335.915466 334.837494,329.886658 334.936127,322.984375 
	C334.898010,320.165771 334.856720,318.220612 334.877411,315.782135 
	C334.939392,300.385437 334.939392,285.482056 334.939392,270.364685 
	C316.952271,270.364685 299.548584,270.364685 281.958344,270.364685 
	C281.787384,272.396942 281.636169,274.194427 281.095551,275.997864 
	C279.143005,276.002472 277.579834,276.001129 276.016693,275.999817 
	C275.896912,274.354248 275.777100,272.708710 275.606537,270.365845 
	C264.600281,270.365845 253.601593,270.365845 242.344025,270.365845 
	C242.344025,268.087708 242.344025,266.509369 242.344025,264.385803 
	C251.995422,264.385803 261.581268,264.454193 271.164154,264.317017 
	C272.722809,264.294739 274.268433,263.362701 276.276917,262.465454 
	C278.314484,262.388855 279.895233,262.697937 281.743103,263.405151 
	C288.946838,264.017761 295.882355,264.350494 302.820435,264.419281 
	C313.414429,264.524261 324.010193,264.446808 335.258911,264.446808 
	C335.258911,259.215851 335.258911,254.601883 335.717346,249.988464 
	C337.710297,249.915283 339.244843,249.841553 340.884338,250.176422 
	C340.989288,255.025436 340.989288,259.465820 340.989288,263.630920 
	C341.834381,264.044403 342.121399,264.307098 342.409515,264.308289 
	C358.517273,264.376007 374.625366,264.466949 390.732239,264.363892 
	C391.755829,264.357391 392.769653,262.826996 393.788025,262.005524 
	C395.209503,261.715088 396.631012,261.424622 398.064911,261.131653 
	C398.443939,263.995911 398.796509,266.660248 399.179413,269.553833 
	C400.562683,269.148926 401.528290,268.866241 402.493866,268.583588 
	C402.681732,268.851959 402.869598,269.120331 403.057434,269.388702 
	C401.404816,270.908966 399.752197,272.429199 397.847961,274.180908 
	C396.574829,273.049622 395.456604,272.056000 394.012878,271.037170 
	C392.594666,270.716919 391.502686,270.167938 390.409241,270.165039 
	C374.753967,270.123383 359.098450,270.151672 343.443054,270.183289 
	C342.813507,270.184570 342.184387,270.385406 341.057007,270.578613 
	C341.057007,286.797607 341.057007,302.896698 341.060486,319.889099 
	C341.093079,322.566101 341.122162,324.349701 341.068726,326.585327 
	C340.994049,332.016541 341.001862,336.995758 341.009674,341.975006 
	C339.192810,341.971893 337.375916,341.968781 335.102783,341.954987 
z"/>
<path fill="#2C4A5E" opacity="1.000000" stroke="none" 
	d="
M132.116333,341.212830 
	C140.815491,334.855133 142.160431,326.099426 141.084564,316.202393 
	C140.549988,311.284790 140.954727,306.265015 140.940399,300.507172 
	C140.995483,299.148773 141.044693,298.574677 141.461578,297.993469 
	C143.486328,297.668701 145.143402,297.351074 146.800476,297.033478 
	C146.800476,306.135712 146.800476,315.237946 146.800476,325.972412 
	C160.583618,311.572510 173.264206,298.324463 186.063034,284.952911 
	C188.672516,287.135529 189.891922,288.155457 191.450287,289.458862 
	C190.203247,290.840057 189.186035,292.077728 188.055679,293.201569 
	C175.894287,305.293091 163.887253,317.548615 151.434830,329.333282 
	C147.741196,332.828827 146.190186,336.279755 147.207611,341.501587 
	C142.316238,341.800415 137.345795,341.666443 132.116333,341.212830 
z"/>
<path fill="#2E4A5E" opacity="1.000000" stroke="none" 
	d="
M281.600433,314.017426 
	C281.674347,315.173584 281.974518,316.367950 281.786713,317.479919 
	C280.123383,327.328796 283.018707,335.339020 291.323669,341.618439 
	C286.550110,341.956299 281.625732,341.974335 276.270081,341.976685 
	C276.790588,336.666656 275.146240,332.717957 271.064117,328.874969 
	C258.833191,317.360565 247.060501,305.359253 235.118408,293.538422 
	C233.948578,292.380463 232.844025,291.156586 231.501877,289.745331 
	C232.574738,288.530487 233.519775,287.460388 235.095200,285.676514 
	C248.510666,298.820831 261.731293,311.774231 275.885010,325.641907 
	C275.885010,321.343628 275.885010,318.118011 276.363037,314.442902 
	C278.427521,314.001404 280.013977,314.009399 281.600433,314.017426 
z"/>
<path fill="#F4F2EC" opacity="1.000000" stroke="none" 
	d="
M173.048798,363.750061 
	C178.510361,363.750214 183.479080,363.750214 188.824844,363.750214 
	C188.824844,372.341980 188.824844,380.506531 188.824844,389.122406 
	C180.801224,384.864532 173.133133,380.962799 165.696457,376.661041 
	C164.630188,376.044250 164.432846,373.519653 164.273926,371.836334 
	C164.043640,369.397217 164.214935,366.920135 164.214935,363.749878 
	C167.359146,363.749878 169.957550,363.749878 173.048798,363.750061 
z"/>
<path fill="#F4F3EC" opacity="1.000000" stroke="none" 
	d="
M259.034149,372.598328 
	C258.478516,374.302734 258.269409,376.201477 257.313141,376.718719 
	C249.767273,380.799957 242.078796,384.617554 234.046387,388.714050 
	C234.046387,380.369843 234.046387,372.354919 234.046387,364.033325 
	C242.361710,364.033325 250.402237,364.033325 259.034546,364.033325 
	C259.034546,366.938171 259.034546,369.545380 259.034149,372.598328 
z"/>
<path fill="#C2963B" opacity="1.000000" stroke="none" 
	d="
M175.394745,341.866821 
	C181.573456,326.906647 188.258270,312.048370 194.753540,297.107727 
	C196.222656,293.728363 197.840302,292.560272 201.296692,295.368042 
	C194.913315,310.549408 188.504471,325.791382 182.059326,341.378540 
	C179.959442,341.795441 177.895844,341.867188 175.394745,341.866821 
z"/>
<path fill="#C1963D" opacity="1.000000" stroke="none" 
	d="
M241.381134,341.835114 
	C234.406647,326.361328 227.860428,310.972809 221.186859,295.284912 
	C222.328720,294.602631 223.559265,293.867340 225.541077,292.683167 
	C232.992020,309.079742 240.298752,325.159027 247.741028,341.541321 
	C245.854187,341.869720 243.831802,341.895050 241.381134,341.835114 
z"/>
<path fill="#F0EFE9" opacity="1.000000" stroke="none" 
	d="
M81.823563,341.956879 
	C70.856644,341.899872 59.889721,341.842865 48.648003,341.498169 
	C59.493603,336.165710 70.614006,331.120880 81.815887,326.531799 
	C81.984428,331.321747 82.071495,335.655914 82.055946,340.308380 
	C81.910072,341.070068 81.866814,341.513458 81.823563,341.956879 
z"/>
<path fill="#F0EFE9" opacity="1.000000" stroke="none" 
	d="
M341.477966,341.979065 
	C341.001862,336.995758 340.994049,332.016541 341.413666,326.641418 
	C345.336945,327.752899 348.877441,329.165466 352.319458,330.787048 
	C359.941406,334.377869 367.513855,338.073700 375.106506,341.726746 
	C364.053101,341.812225 352.999695,341.897675 341.477966,341.979065 
z"/>
<path fill="#C5983F" opacity="1.000000" stroke="none" 
	d="
M375.553589,341.799805 
	C367.513855,338.073700 359.941406,334.377869 352.319458,330.787048 
	C348.877441,329.165466 345.336945,327.752899 341.496185,326.189423 
	C341.122162,324.349701 341.093079,322.566101 341.144226,320.345337 
	C357.608521,327.058838 373.992584,334.209534 390.600952,341.578674 
	C385.883728,341.822418 380.942169,341.847656 375.553589,341.799805 
z"/>
<path fill="#C2963B" opacity="1.000000" stroke="none" 
	d="
M81.734406,326.076080 
	C70.614006,331.120880 59.493603,336.165710 48.178871,341.481964 
	C42.973213,341.795319 37.961887,341.837219 32.493637,341.834503 
	C48.338223,334.485291 64.639740,327.180756 81.393250,320.264282 
	C81.808296,322.460236 81.771355,324.268158 81.734406,326.076080 
z"/>
<path fill="#C1963D" opacity="1.000000" stroke="none" 
	d="
M208.364838,341.829041 
	C207.922531,326.798523 207.922531,311.844543 207.922531,296.476440 
	C210.264114,296.345093 211.812820,296.258240 214.109940,296.129364 
	C214.109940,311.322998 214.109940,326.089050 214.158936,341.297363 
	C212.407654,341.794922 210.607407,341.850250 208.364838,341.829041 
z"/>
<path fill="#E5E4E2" opacity="1.000000" stroke="none" 
	d="
M285.821045,364.934143 
	C279.643005,367.307098 273.787750,369.500336 267.451843,371.873657 
	C267.451843,368.958282 267.451843,366.583191 267.451843,363.453613 
	C273.727509,363.453613 279.949066,363.453613 286.170624,363.453613 
	C286.161682,363.887207 286.152740,364.320831 285.821045,364.934143 
z"/>
<path fill="#ECEEE9" opacity="1.000000" stroke="none" 
	d="
M156.110184,366.090454 
	C156.117050,368.148651 156.117050,369.773834 156.117050,372.047638 
	C149.124100,369.439545 142.759781,367.065887 136.395447,364.692261 
	C136.454971,364.301636 136.514496,363.911041 136.574020,363.520416 
	C142.562195,363.520416 148.551727,363.465820 154.536285,363.613312 
	C155.075089,363.626587 155.581741,364.945129 156.110184,366.090454 
z"/>
<path fill="#264559" opacity="1.000000" stroke="none" 
	d="
M393.917725,338.995880 
	C393.832367,337.924927 393.747009,336.853973 393.777588,335.393860 
	C397.585083,334.773743 401.276733,334.542816 405.780212,334.261108 
	C405.513641,336.382843 405.267944,338.338379 405.019470,340.698669 
	C402.283997,341.294769 399.551270,341.486023 396.386322,341.262909 
	C395.275269,340.230988 394.596497,339.613434 393.917725,338.995880 
z"/>
<path fill="#2B485D" opacity="1.000000" stroke="none" 
	d="
M29.279432,336.230621 
	C29.850586,337.954071 29.957829,339.598175 30.094929,341.599182 
	C28.358305,341.929810 26.591825,341.903564 24.389462,341.792664 
	C23.791533,338.295990 23.758062,334.996460 29.279432,336.230621 
z"/>
<path fill="#2B485D" opacity="1.000000" stroke="none" 
	d="
M82.275925,341.968140 
	C81.866814,341.513458 81.910072,341.070068 82.408279,340.310028 
	C84.474380,339.325317 86.085526,338.657257 87.696671,337.989197 
	C87.816467,339.046661 87.936272,340.104156 88.106987,341.558258 
	C86.348030,341.963043 84.538162,341.971222 82.275925,341.968140 
z"/>
<path fill="#214255" opacity="1.000000" stroke="none" 
	d="
M393.804565,339.352234 
	C394.596497,339.613434 395.275269,340.230988 395.963989,341.144470 
	C395.447266,341.575256 394.920624,341.710083 393.987030,341.895325 
	C393.617188,341.200012 393.654297,340.454285 393.804565,339.352234 
z"/>
<path fill="#818180" opacity="1.000000" stroke="none" 
	d="
M257.138184,426.387146 
	C257.321503,426.304749 257.621704,426.398407 257.946045,426.744812 
	C257.690247,426.921204 257.451874,426.776398 257.138184,426.387146 
z"/>
<path fill="#2B485D" opacity="1.000000" stroke="none" 
	d="
M146.868011,297.072876 
	C145.143402,297.351074 143.486328,297.668701 141.396881,297.576416 
	C140.912262,296.044495 140.860016,294.922516 140.896851,293.353271 
	C140.986313,286.532104 140.902679,280.156403 141.031540,273.785034 
	C141.078278,271.473633 140.619217,269.966461 137.999176,269.577209 
	C137.994736,267.631683 137.988464,266.076080 138.438690,264.466919 
	C139.625061,263.418884 140.972382,262.432495 140.985580,261.428558 
	C141.078369,254.370712 140.896347,247.309250 140.863525,239.811050 
	C140.888443,237.635010 140.851929,235.896835 140.899734,233.686646 
	C140.976959,224.386841 141.163544,215.551773 140.832962,206.736115 
	C140.745193,204.395813 139.643524,201.553055 138.026993,199.899292 
	C128.365509,190.015427 118.427727,180.401184 108.561501,170.718033 
	C101.838524,164.119797 95.081108,157.556686 87.868309,150.518478 
	C87.534676,152.504532 87.326195,153.745560 86.737236,154.991486 
	C84.890770,155.329895 83.424782,155.663422 81.845848,155.553497 
	C82.299919,148.489273 81.700386,142.652954 75.511574,138.116409 
	C70.643143,134.547745 66.776222,129.612839 62.464439,125.284805 
	C63.949032,124.605385 65.433624,123.925964 67.363312,123.083313 
	C72.129158,127.043938 76.449898,131.167786 80.770645,135.291641 
	C81.197517,135.086975 81.624382,134.882309 82.051254,134.677643 
	C82.051254,126.116890 82.051254,117.556145 82.375290,109.036194 
	C84.241875,109.711937 85.784431,110.346863 87.471420,111.333588 
	C87.603050,120.476952 87.393791,129.275574 87.709030,138.055359 
	C87.792778,140.387939 88.919846,143.216721 90.536453,144.871384 
	C99.112511,153.649200 108.007278,162.115189 116.771675,170.709564 
	C123.759605,177.561951 130.678085,184.486237 137.752045,191.248199 
	C138.484711,191.948532 140.066528,191.760513 141.640625,191.983429 
	C143.570160,191.980240 145.113403,191.978302 146.656647,191.976349 
	C145.677505,198.685440 149.497314,202.746445 153.935669,207.149185 
	C166.213165,219.328186 177.970657,232.031418 190.220810,244.827271 
	C190.025467,245.038681 188.940063,246.213409 187.442032,247.834702 
	C174.163101,234.855560 161.048782,222.037338 146.987106,208.293121 
	C146.987106,218.392929 146.987106,227.262680 147.011063,237.006622 
	C147.057571,239.797455 147.080109,241.714096 147.102661,243.630722 
	C147.102661,250.398590 147.102661,257.166443 147.102661,264.398560 
	C158.396133,264.398560 169.274567,264.398560 180.415314,264.398560 
	C180.415314,266.432617 180.415314,267.993439 180.415314,270.147583 
	C169.296768,270.147583 158.415466,270.147583 146.976135,270.147583 
	C146.976135,277.150330 146.976135,283.574951 146.973663,290.890076 
	C147.001251,293.526855 147.031296,295.273071 147.061340,297.019318 
	C147.061340,297.019318 146.935562,297.112244 146.868011,297.072876 
z"/>
<path fill="#28455B" opacity="1.000000" stroke="none" 
	d="
M302.977814,173.933838 
	C304.203796,174.961777 305.429779,175.989716 306.911194,177.343231 
	C299.290436,185.389908 291.337494,193.035721 283.619080,200.911377 
	C282.430115,202.124557 281.882080,204.372208 281.791016,206.179428 
	C281.508789,211.778564 281.590027,217.396027 281.194275,222.990585 
	C279.263672,222.317535 277.668945,221.660263 276.074219,221.003006 
	C275.994385,218.296616 275.914520,215.590225 276.221069,212.400177 
	C276.401550,211.277451 276.195618,210.638397 275.989655,209.999329 
	C274.721863,210.574417 273.161102,210.852341 272.230743,211.769623 
	C260.198395,223.632751 248.255783,235.586853 235.845627,247.961624 
	C234.503784,246.681274 233.147202,245.386856 231.973358,244.266815 
	C241.203033,234.786789 250.169235,225.495377 259.233826,216.300964 
	C263.903656,211.564301 268.853729,207.100616 273.444122,202.291168 
	C274.665314,201.011734 275.673401,198.914734 275.683441,197.186737 
	C275.810089,175.398972 275.735840,153.610016 275.749634,131.047455 
	C275.716492,125.498451 275.646606,120.723381 275.576721,115.948303 
	C275.630432,115.507874 275.684113,115.067436 276.262817,114.316986 
	C278.419556,114.041328 280.051300,114.075691 281.741760,114.561050 
	C281.800476,141.006271 281.800476,167.000488 281.800476,193.971664 
	C285.550690,190.639664 288.375916,188.129486 291.574890,185.783356 
	C292.810822,185.989685 293.673096,186.031967 294.535339,186.074249 
	C294.034271,185.253525 293.533203,184.432800 293.204590,183.299744 
	C296.577271,179.969528 299.777557,176.951675 302.977814,173.933838 
z"/>
<path fill="#C5983F" opacity="1.000000" stroke="none" 
	d="
M207.985504,46.712662 
	C209.667023,46.197392 211.365158,46.131432 213.474731,46.155807 
	C213.939056,105.171486 213.992188,164.096832 214.044403,223.022186 
	C214.048065,227.156921 214.044861,231.291656 214.044861,235.851547 
	C212.030609,235.966614 210.471695,236.055679 208.002136,236.196762 
	C208.002136,172.886490 208.002136,110.024239 207.985504,46.712662 
z"/>
<path fill="#BE9132" opacity="1.000000" stroke="none" 
	d="
M192.897583,262.160278 
	C195.486832,253.573822 201.063934,248.803375 209.517120,248.030472 
	C217.710159,247.281372 224.279175,250.589355 228.107224,258.011810 
	C231.778656,265.130585 231.233459,272.196838 226.181915,278.605103 
	C220.972488,285.213654 211.328247,287.381195 203.582199,283.835052 
	C194.956879,279.886353 191.196289,272.446594 192.897583,262.160278 
z"/>
<path fill="#C39839" opacity="1.000000" stroke="none" 
	d="
M275.369446,116.204163 
	C275.646606,120.723381 275.716492,125.498451 275.690369,130.573486 
	C270.758575,141.276764 265.801514,151.625763 261.111206,162.094254 
	C250.012573,186.865738 239.042847,211.694977 228.009903,236.495895 
	C227.542160,237.547318 226.962723,238.549042 226.254028,239.926254 
	C224.505463,239.146469 222.907761,238.433960 221.231049,237.686234 
	C239.305969,197.057434 257.234070,156.758728 275.369446,116.204163 
z"/>
<path fill="#C5973C" opacity="1.000000" stroke="none" 
	d="
M147.063828,116.307579 
	C157.665741,139.983337 168.283386,163.652084 178.863708,187.337494 
	C185.311111,201.770859 191.702438,216.229294 198.115341,230.678070 
	C199.111649,232.922821 200.088669,235.176132 201.237564,237.797272 
	C199.411667,238.568726 197.970520,239.177628 196.051178,239.988571 
	C189.976257,226.303864 184.064819,212.935730 178.110840,199.586578 
	C167.944901,176.793991 157.752228,154.013321 147.218445,130.646530 
	C146.798874,129.365982 146.731659,128.666519 146.728851,127.735519 
	C146.793243,127.503967 146.661224,127.041786 146.741898,126.590591 
	C146.902985,122.862129 146.983398,119.584854 147.063828,116.307579 
z"/>
<path fill="#C39839" opacity="1.000000" stroke="none" 
	d="
M275.543488,243.947540 
	C264.210175,248.714340 252.876831,253.481125 241.220551,258.383728 
	C240.570847,257.016083 239.810394,255.415329 238.816559,253.323288 
	C251.059830,248.052536 262.959686,242.929611 275.280609,238.168762 
	C275.648926,240.336411 275.596191,242.141968 275.543488,243.947540 
z"/>
<path fill="#C6973B" opacity="1.000000" stroke="none" 
	d="
M147.409149,296.922668 
	C147.031296,295.273071 147.001251,293.526855 147.042053,291.349030 
	C158.515991,286.058136 169.919098,281.198853 181.688873,276.183289 
	C182.589310,278.001160 183.278076,279.391663 184.110184,281.071625 
	C171.726669,286.438263 159.741821,291.632141 147.409149,296.922668 
z"/>
<path fill="#1E3B4F" opacity="1.000000" stroke="none" 
	d="
M146.664459,127.967072 
	C146.731659,128.666519 146.798874,129.365982 146.952606,130.402985 
	C146.954117,131.974823 146.869110,133.209106 146.238983,134.753448 
	C144.190399,135.037170 142.686920,135.010818 141.098053,134.523834 
	C140.871307,127.189735 140.729950,120.316261 140.712402,112.966965 
	C140.921906,109.652176 141.007614,106.813202 141.239410,103.885910 
	C141.285065,103.538452 141.184616,103.279320 141.024124,102.662781 
	C140.887878,101.599266 140.811676,100.893158 140.785583,99.788063 
	C140.932556,98.593925 141.029465,97.798790 141.126358,97.003647 
	C142.680878,96.681511 144.235397,96.359367 146.129532,96.021049 
	C146.623779,102.440994 146.778397,108.877121 146.998413,115.810410 
	C146.983398,119.584854 146.902985,122.862129 146.631744,126.685822 
	C146.299911,127.531654 146.374420,127.776604 146.664459,127.967072 
z"/>
<path fill="#C39839" opacity="1.000000" stroke="none" 
	d="
M147.482819,243.686707 
	C147.080109,241.714096 147.057571,239.797455 147.107513,237.470612 
	C159.170349,242.214813 171.160675,247.369232 183.468750,252.660263 
	C182.874893,254.473434 182.378326,255.989517 181.758591,257.881683 
	C170.294312,253.099548 159.078644,248.421127 147.482819,243.686707 
z"/>
<path fill="#C6973B" opacity="1.000000" stroke="none" 
	d="
M275.552429,296.538940 
	C263.377625,291.457703 251.202820,286.376495 239.134552,281.339752 
	C239.527832,276.730377 241.395477,276.164612 244.832275,277.657227 
	C254.848038,282.007050 264.944550,286.171021 275.430664,290.861572 
	C275.752136,293.056488 275.652283,294.797729 275.552429,296.538940 
z"/>
<path fill="#1E3B4F" opacity="1.000000" stroke="none" 
	d="
M146.610062,145.794861 
	C146.684387,154.547287 146.758728,163.299728 146.357941,172.512558 
	C144.330109,172.976349 142.777405,172.979736 141.138580,172.522568 
	C141.104340,163.713455 141.156219,155.364914 141.600342,147.003967 
	C143.531754,146.592667 145.070908,146.193771 146.610062,145.794861 
z"/>
<path fill="#1E3B4F" opacity="1.000000" stroke="none" 
	d="
M281.683044,114.110046 
	C280.051300,114.075691 278.419556,114.041328 276.378601,114.004982 
	C275.914398,106.975296 275.859375,99.947586 275.902954,92.460266 
	C277.594055,91.680305 279.186584,91.359947 281.189606,91.479340 
	C281.710419,95.016830 281.820709,98.114563 281.837158,101.650696 
	C281.826324,106.077011 281.909302,110.064934 281.922211,114.106293 
	C281.852142,114.159744 281.683044,114.110046 281.683044,114.110046 
z"/>
<path fill="#223F54" opacity="1.000000" stroke="none" 
	d="
M275.635437,244.414185 
	C275.596191,242.141968 275.648926,240.336411 275.624664,238.069275 
	C275.651764,237.248520 275.755859,236.889313 276.380280,236.264893 
	C278.302521,236.017410 279.704468,236.035110 281.113953,236.352448 
	C281.316589,237.385925 281.511627,238.119766 281.780884,239.286957 
	C281.939636,240.000992 282.024170,240.281647 281.962158,240.973892 
	C281.707214,246.921707 281.598785,252.457901 281.103394,257.993774 
	C279.163635,257.994629 277.610840,257.995819 276.058075,257.997009 
	C275.947815,253.624954 275.837585,249.252899 275.635437,244.414185 
z"/>
<path fill="#264559" opacity="1.000000" stroke="none" 
	d="
M275.689575,296.907196 
	C275.652283,294.797729 275.752136,293.056488 275.804932,290.920227 
	C275.791168,288.315979 275.824432,286.106781 276.285706,283.433105 
	C278.310913,282.648071 279.908081,282.327545 281.598602,282.458435 
	C281.813934,286.588867 281.935944,290.267822 281.986511,294.330688 
	C281.828644,295.488861 281.742249,296.263153 281.548157,297.133728 
	C281.301147,297.525513 281.372986,297.768768 281.731873,298.280701 
	C281.889679,299.031769 281.971649,299.462006 282.053619,299.892273 
	C281.954773,300.663300 281.855896,301.434326 281.275330,302.595551 
	C279.228546,302.987335 277.663544,302.988922 276.098511,302.990540 
	C276.007904,301.085480 275.917297,299.180481 275.689575,296.907196 
z"/>
<path fill="#1E3B4F" opacity="1.000000" stroke="none" 
	d="
M146.748062,191.519104 
	C145.113403,191.978302 143.570160,191.980240 141.553619,191.525558 
	C141.130783,186.385040 141.181274,181.701157 141.582611,177.010529 
	C143.513702,176.678589 145.093948,176.353363 146.674194,176.028137 
	C146.729294,181.039368 146.784378,186.050613 146.748062,191.519104 
z"/>
<path fill="#364F5F" opacity="1.000000" stroke="none" 
	d="
M276.003113,303.440857 
	C277.663544,302.988922 279.228546,302.987335 281.182312,302.974670 
	C281.650360,306.348389 281.729614,309.733154 281.704651,313.567688 
	C280.013977,314.009399 278.427521,314.001404 276.442596,313.997589 
	C275.998657,310.631592 275.953186,307.261353 276.003113,303.440857 
z"/>
<path fill="#2B485D" opacity="1.000000" stroke="none" 
	d="
M146.715515,145.431122 
	C145.070908,146.193771 143.531754,146.592667 141.497559,146.551727 
	C141.062805,142.402740 141.123108,138.693604 141.183426,134.984467 
	C142.686920,135.010818 144.190399,135.037170 146.146729,135.107819 
	C146.673355,138.457214 146.747177,141.762283 146.715515,145.431122 
z"/>
<path fill="#223F54" opacity="1.000000" stroke="none" 
	d="
M275.993835,221.447006 
	C277.668945,221.660263 279.263672,222.317535 281.298645,223.418167 
	C281.662903,225.905731 281.586945,227.949936 281.126251,229.994446 
	C279.199890,229.994720 277.658264,229.994675 276.116699,229.994629 
	C276.048950,227.293427 275.981201,224.592209 275.993835,221.447006 
z"/>
<path fill="#364F5F" opacity="1.000000" stroke="none" 
	d="
M281.505249,282.006989 
	C279.908081,282.327545 278.310913,282.648071 276.358246,282.984375 
	C275.945465,280.953400 275.888214,278.906616 275.923828,276.429810 
	C277.579834,276.001129 279.143005,276.002472 281.211304,276.416382 
	C281.646088,278.554993 281.575653,280.280975 281.505249,282.006989 
z"/>
<path fill="#28455B" opacity="1.000000" stroke="none" 
	d="
M276.021118,230.416168 
	C277.658264,229.994675 279.199890,229.994720 281.238678,230.431976 
	C281.796295,232.071640 281.856689,233.274109 281.849976,234.732666 
	C281.752441,235.344803 281.722015,235.700836 281.545349,236.044754 
	C281.399139,236.032639 281.106384,236.052811 281.106384,236.052811 
	C279.704468,236.035110 278.302521,236.017410 276.480103,236.000885 
	C276.014923,234.280609 275.970245,232.559158 276.021118,230.416168 
z"/>
<path fill="#28455B" opacity="1.000000" stroke="none" 
	d="
M275.963409,258.390503 
	C277.610840,257.995819 279.163635,257.994629 281.212982,258.402100 
	C281.631714,260.209534 281.553833,261.608276 281.475983,263.007019 
	C279.895233,262.697937 278.314484,262.388855 276.386749,262.040100 
	C275.982758,260.928314 275.925751,259.856171 275.963409,258.390503 
z"/>
<path fill="#2B485D" opacity="1.000000" stroke="none" 
	d="
M146.782211,175.653015 
	C145.093948,176.353363 143.513702,176.678589 141.479172,176.615082 
	C141.091492,175.145264 141.158096,174.064194 141.224701,172.983124 
	C142.777405,172.979736 144.330109,172.976349 146.270050,172.971542 
	C146.734955,173.739380 146.812592,174.508636 146.782211,175.653015 
z"/>
<path fill="#223F54" opacity="1.000000" stroke="none" 
	d="
M275.906311,210.329514 
	C276.195618,210.638397 276.401550,211.277451 276.314331,211.957581 
	C275.955078,211.552322 275.889008,211.106003 275.906311,210.329514 
z"/>
<path fill="#F5F4ED" opacity="1.000000" stroke="none" 
	d="
M141.138580,172.522568 
	C141.158096,174.064194 141.091492,175.145264 141.128326,176.621796 
	C141.181274,181.701157 141.130783,186.385040 141.167328,191.526810 
	C140.066528,191.760513 138.484711,191.948532 137.752045,191.248199 
	C130.678085,184.486237 123.759605,177.561951 116.771675,170.709564 
	C108.007278,162.115189 99.112511,153.649200 90.536453,144.871384 
	C88.919846,143.216721 87.792778,140.387939 87.709030,138.055359 
	C87.393791,129.275574 87.603050,120.476952 87.597290,110.882431 
	C87.593719,106.663452 87.319321,103.213486 87.714706,99.842072 
	C88.034554,97.114799 89.160881,94.482109 89.929466,91.807465 
	C99.965897,84.716629 110.002335,77.625793 120.542206,70.811432 
	C121.801521,72.744560 122.550797,74.404259 123.314362,76.057358 
	C129.070862,88.519890 134.830170,100.981140 140.588593,113.442795 
	C140.729950,120.316261 140.871307,127.189735 141.098053,134.523834 
	C141.123108,138.693604 141.062805,142.402740 141.105301,146.564117 
	C141.156219,155.364914 141.104340,163.713455 141.138580,172.522568 
z"/>
<path fill="#F5F4EE" opacity="1.000000" stroke="none" 
	d="
M303.158356,173.657898 
	C299.777557,176.951675 296.577271,179.969528 292.984436,183.465851 
	C292.128265,184.502640 291.664734,185.060974 291.201172,185.619293 
	C288.375916,188.129486 285.550690,190.639664 281.800476,193.971664 
	C281.800476,167.000488 281.800476,141.006271 281.741760,114.561050 
	C281.683044,114.110046 281.852142,114.159744 282.228943,113.937500 
	C289.085114,99.255814 295.564453,84.796364 302.043793,70.336914 
	C311.813324,77.167404 321.582886,83.997887 331.796844,91.328949 
	C333.154205,93.939674 334.593872,95.984749 334.864349,98.174263 
	C335.345367,102.068085 335.118286,106.049393 335.187378,109.994102 
	C335.125610,119.431297 335.222687,128.874222 334.883087,138.301407 
	C334.804596,140.480698 333.768433,143.130005 332.261078,144.671127 
	C322.763550,154.381454 313.008728,163.840134 303.158356,173.657898 
z"/>
<path fill="#F3F2EB" opacity="1.000000" stroke="none" 
	d="
M44.000378,264.883820 
	C40.311089,264.806213 36.621803,264.728577 32.249660,264.614319 
	C31.033207,264.416901 30.499611,264.256134 29.966015,264.095337 
	C29.962093,249.512360 29.643270,234.920120 30.072441,220.349899 
	C30.329613,211.619049 31.756002,202.922607 33.103043,194.034241 
	C33.893864,193.913025 34.238514,193.968277 34.725628,194.286514 
	C49.861252,201.065018 64.854408,207.580551 79.998718,214.315140 
	C80.635696,214.717606 81.121529,214.901001 81.698700,215.539322 
	C81.886681,231.661423 81.983345,247.328583 81.870148,263.351624 
	C79.093536,264.083221 76.526794,264.458923 73.504646,264.724243 
	C63.366287,264.703827 53.683331,264.793823 44.000378,264.883820 
z"/>
<path fill="#F4F3EC" opacity="1.000000" stroke="none" 
	d="
M393.664337,261.585205 
	C392.769653,262.826996 391.755829,264.357391 390.732239,264.363892 
	C374.625366,264.466949 358.517273,264.376007 342.409515,264.308289 
	C342.121399,264.307098 341.834381,264.044403 340.989288,263.630920 
	C340.989288,259.465820 340.989288,255.025436 340.970551,249.731552 
	C340.875458,239.591415 340.799103,230.304764 340.821869,220.599564 
	C341.002625,218.467117 341.084259,216.753220 341.437439,215.018066 
	C342.147614,214.706268 342.586182,214.415741 343.391785,214.075439 
	C359.260345,207.304108 374.761902,200.582520 390.263428,193.860931 
	C391.282867,203.356247 392.793091,212.830490 393.201843,222.352020 
	C393.756470,235.270676 393.467682,248.225525 393.664337,261.585205 
z"/>
<path fill="#F3F2EB" opacity="1.000000" stroke="none" 
	d="
M62.129745,125.152496 
	C66.776222,129.612839 70.643143,134.547745 75.511574,138.116409 
	C81.700386,142.652954 82.299919,148.489273 81.752869,156.014496 
	C81.854828,170.612122 81.936829,184.305359 81.917648,198.446259 
	C81.706001,202.227249 81.595543,205.560547 81.179520,208.772018 
	C70.911278,204.454773 60.948589,200.259354 50.798367,195.845093 
	C50.072285,195.467865 49.533745,195.309464 48.701496,194.946869 
	C44.324928,193.037888 40.242065,191.333099 35.936916,189.431122 
	C35.154366,189.023041 34.594101,188.812149 34.033836,188.601257 
	C37.112415,169.921768 44.528179,152.824677 53.239326,136.216064 
	C54.927486,132.997421 56.872677,129.899048 58.907787,126.886032 
	C59.497784,126.012527 60.812542,125.628563 62.129745,125.152496 
z"/>
<path fill="#F4F3EC" opacity="1.000000" stroke="none" 
	d="
M340.683533,152.007095 
	C339.971893,146.194336 342.696960,142.313416 346.933105,138.482162 
	C351.822052,134.060516 355.773041,128.601807 360.908417,123.968628 
	C374.995453,144.131348 384.421875,165.004288 388.719482,188.435455 
	C373.548615,195.356537 358.780792,201.790054 343.713989,208.260742 
	C342.657776,208.558167 341.900513,208.818436 341.061584,208.621094 
	C340.893524,204.769684 340.807190,201.375854 340.814362,197.523041 
	C340.833099,182.045074 340.758301,167.026077 340.683533,152.007095 
z"/>
<path fill="#F4F3EC" opacity="1.000000" stroke="none" 
	d="
M281.917084,234.476593 
	C281.856689,233.274109 281.796295,232.071640 281.623444,230.431641 
	C281.586945,227.949936 281.662903,225.905731 281.634521,223.433960 
	C281.590027,217.396027 281.508789,211.778564 281.791016,206.179428 
	C281.882080,204.372208 282.430115,202.124557 283.619080,200.911377 
	C291.337494,193.035721 299.290436,185.389908 307.335846,177.355392 
	C312.222656,172.516617 316.940186,167.991272 322.101318,163.041412 
	C323.997559,161.067200 325.450256,159.517471 326.902924,157.967743 
	C329.497498,155.862030 332.092072,153.756317 334.848328,152.293030 
	C335.083069,167.952148 335.156097,182.968842 335.130676,198.441727 
	C334.964630,203.269409 334.897064,207.640930 334.483887,212.094177 
	C331.390900,213.355118 328.645630,214.539230 325.895844,215.712769 
	C311.236877,221.968857 296.576782,228.222244 281.917084,234.476593 
z"/>
<path fill="#ECEEE9" opacity="1.000000" stroke="none" 
	d="
M82.051254,108.995392 
	C82.051254,117.556145 82.051254,126.116890 82.051254,134.677643 
	C81.624382,134.882309 81.197517,135.086975 80.770645,135.291641 
	C76.449898,131.167786 72.129158,127.043938 67.504654,122.762169 
	C64.227081,120.049492 65.018433,117.783493 67.413124,115.218185 
	C70.903076,111.479599 74.109123,107.475990 77.842880,103.147598 
	C79.213509,101.930908 80.177483,101.151993 81.626793,99.980911 
	C81.790482,103.457390 81.920868,106.226395 82.051254,108.995392 
z"/>
<path fill="#F3F2EB" opacity="1.000000" stroke="none" 
	d="
M281.931030,101.212311 
	C281.820709,98.114563 281.710419,95.016830 281.538025,91.463356 
	C281.475922,80.938705 281.475922,70.869789 281.475922,59.679375 
	C287.270477,62.499252 291.995667,64.798737 296.769287,67.680862 
	C291.855499,79.246445 286.893250,90.229378 281.931030,101.212311 
z"/>
<path fill="#F1F1EC" opacity="1.000000" stroke="none" 
	d="
M344.716949,102.786346 
	C349.264771,108.238007 353.812592,113.689651 358.580017,119.404533 
	C352.829376,124.863800 347.448578,129.971954 340.826965,136.258072 
	C340.826965,126.554688 340.826965,118.233223 340.821411,109.028542 
	C340.815887,105.671951 340.815887,103.198586 340.815887,99.937408 
	C342.696136,101.310555 343.706543,102.048447 344.716949,102.786346 
z"/>
<path fill="#F0EFE9" opacity="1.000000" stroke="none" 
	d="
M141.033188,96.546852 
	C141.029465,97.798790 140.932556,98.593925 140.553360,99.521774 
	C135.364487,88.925621 130.457901,78.196770 125.551331,67.467918 
	C130.318695,65.046967 135.086075,62.626019 140.925125,59.660854 
	C140.925125,65.677200 140.925125,70.375450 140.910797,75.965210 
	C140.954529,78.905754 141.012573,80.954773 141.070618,83.003799 
	C141.027100,87.365883 140.983566,91.727974 141.033188,96.546852 
z"/>
<path fill="#C69737" opacity="1.000000" stroke="none" 
	d="
M344.012970,208.223587 
	C358.780792,201.790054 373.548615,195.356537 388.692047,188.833313 
	C389.428528,190.196106 389.789368,191.648560 390.206818,193.480988 
	C374.761902,200.582520 359.260345,207.304108 343.389404,213.692535 
	C343.350983,211.647446 343.681976,209.935516 344.012970,208.223587 
z"/>
<path fill="#1E3B4F" opacity="1.000000" stroke="none" 
	d="
M335.229126,197.985550 
	C335.156097,182.968842 335.083069,167.952148 335.071136,152.470749 
	C336.718811,152.007111 338.305328,152.008179 340.287720,152.008179 
	C340.758301,167.026077 340.833099,182.045074 340.422455,197.523407 
	C338.367706,197.983704 336.798431,197.984619 335.229126,197.985550 
z"/>
<path fill="#C2963B" opacity="1.000000" stroke="none" 
	d="
M281.837189,101.650703 
	C286.893250,90.229378 291.855499,79.246445 297.003723,67.918671 
	C298.680115,68.334221 300.170502,69.094627 301.852356,70.095978 
	C295.564453,84.796364 289.085114,99.255814 282.299011,113.884056 
	C281.909302,110.064934 281.826324,106.077011 281.837189,101.650703 
z"/>
<path fill="#C39A43" opacity="1.000000" stroke="none" 
	d="
M125.238129,67.559662 
	C130.457901,78.196770 135.364487,88.925621 140.503265,99.920769 
	C140.811676,100.893158 140.887878,101.599266 140.971878,102.901718 
	C140.979675,103.498070 141.093323,103.974236 141.093323,103.974236 
	C141.007614,106.813202 140.921906,109.652176 140.712402,112.966965 
	C134.830170,100.981140 129.070862,88.519890 123.314362,76.057358 
	C122.550797,74.404259 121.801521,72.744560 120.892120,70.707832 
	C122.134048,69.435638 123.529488,68.543518 125.238129,67.559662 
z"/>
<path fill="#1E3B4F" opacity="1.000000" stroke="none" 
	d="
M82.375282,109.036194 
	C81.920868,106.226395 81.790482,103.457390 81.626793,99.980911 
	C80.177483,101.151993 79.213509,101.930908 77.937721,102.849304 
	C75.211960,97.487015 79.335258,94.673195 82.705086,92.130142 
	C84.306587,90.921570 87.234779,91.471024 89.745720,91.515770 
	C89.160881,94.482109 88.034554,97.114799 87.714706,99.842072 
	C87.319321,103.213486 87.593719,106.663452 87.452850,110.530632 
	C85.784431,110.346863 84.241875,109.711937 82.375282,109.036194 
z"/>
<path fill="#1E3B4F" opacity="1.000000" stroke="none" 
	d="
M344.790466,102.336853 
	C343.706543,102.048447 342.696136,101.310555 340.815887,99.937408 
	C340.815887,103.198586 340.815887,105.671951 340.719238,108.569962 
	C339.044556,109.322723 337.466492,109.650856 335.537903,109.986542 
	C335.118286,106.049393 335.345367,102.068085 334.864349,98.174263 
	C334.593872,95.984749 333.154205,93.939674 332.091248,91.496826 
	C332.379456,90.572044 332.834534,89.454376 333.253326,89.467834 
	C338.356018,89.631767 344.649323,96.452965 344.790466,102.336853 
z"/>
<path fill="#223F54" opacity="1.000000" stroke="none" 
	d="
M43.963902,265.252136 
	C53.683331,264.793823 63.366287,264.703827 73.568619,265.159302 
	C74.608856,267.113464 75.129715,268.522186 75.650574,269.930908 
	C65.057388,269.992065 54.464199,270.053253 43.435837,270.017120 
	C43.309582,268.486664 43.618504,267.053558 43.963902,265.252136 
z"/>
<path fill="#264559" opacity="1.000000" stroke="none" 
	d="
M405.307983,288.403381 
	C404.843658,290.219635 404.087585,292.121429 403.331543,294.023254 
	C400.166229,286.688721 400.166229,286.688721 403.796906,284.728455 
	C404.185547,285.927002 404.600861,287.207947 405.307983,288.403381 
z"/>
<path fill="#2B485D" opacity="1.000000" stroke="none" 
	d="
M141.410950,82.936203 
	C141.012573,80.954773 140.954529,78.905754 140.990005,76.426147 
	C144.789062,77.948212 144.810028,80.258812 141.410950,82.936203 
z"/>
<path fill="#264559" opacity="1.000000" stroke="none" 
	d="
M402.619812,300.317810 
	C401.528015,297.441803 402.165802,296.485535 407.501648,294.082001 
	C405.505798,296.672607 404.181732,298.391235 402.619812,300.317810 
z"/>
<path fill="#28455B" opacity="1.000000" stroke="none" 
	d="
M326.539734,157.979660 
	C325.450256,159.517471 323.997559,161.067200 322.249268,162.739075 
	C323.361237,161.238007 324.768890,159.614792 326.539734,157.979660 
z"/>
<path fill="#C5983F" opacity="1.000000" stroke="none" 
	d="
M33.799843,188.969543 
	C34.594101,188.812149 35.154366,189.023041 35.755363,189.856064 
	C35.391781,191.659988 34.987473,192.841751 34.583164,194.023529 
	C34.238514,193.968277 33.893864,193.913025 33.312347,193.742065 
	C33.238934,192.196838 33.402390,190.767319 33.799843,188.969543 
z"/>
<path fill="#264559" opacity="1.000000" stroke="none" 
	d="
M402.774292,305.796997 
	C402.227905,306.033203 401.743103,305.981445 401.258331,305.929688 
	C401.369293,305.497742 401.480255,305.065796 401.591187,304.633850 
	C402.006073,304.925568 402.420990,305.217316 402.774292,305.796997 
z"/>
<path fill="#264559" opacity="1.000000" stroke="none" 
	d="
M406.773895,313.796906 
	C406.227722,314.033020 405.743103,313.981262 405.258514,313.929504 
	C405.369415,313.497650 405.480347,313.065796 405.591278,312.633942 
	C406.006012,312.925629 406.420746,313.217316 406.773895,313.796906 
z"/>
<path fill="#2B485D" opacity="1.000000" stroke="none" 
	d="
M30.953850,269.693481 
	C30.727732,270.198059 30.459394,270.412506 29.982969,270.778809 
	C29.724510,270.135986 29.674137,269.341278 29.623764,268.546570 
	C30.053055,268.832153 30.482344,269.117767 30.953850,269.693481 
z"/>
<path fill="#2B485D" opacity="1.000000" stroke="none" 
	d="
M29.964857,264.391876 
	C30.499611,264.256134 31.033207,264.416901 31.802380,264.725769 
	C31.532913,265.341064 31.027876,265.808289 30.522839,266.275543 
	C30.336460,265.746490 30.150080,265.217468 29.964857,264.391876 
z"/>
<path fill="#264559" opacity="1.000000" stroke="none" 
	d="
M402.045013,311.424927 
	C402.273926,311.801392 402.271698,312.175537 402.242554,312.547546 
	C402.241730,312.557892 401.951813,312.545593 401.796722,312.543854 
	C401.801208,312.169983 401.805695,311.796143 402.045013,311.424927 
z"/>
<path fill="#264559" opacity="1.000000" stroke="none" 
	d="
M405.630554,319.557129 
	C406.056732,319.667816 406.315033,319.938904 406.573364,320.209991 
	C406.461121,320.316864 406.348877,320.423767 406.236664,320.530670 
	C405.978668,320.259613 405.720673,319.988586 405.630554,319.557129 
z"/>
<path fill="#264559" opacity="1.000000" stroke="none" 
	d="
M406.045105,276.425293 
	C406.273895,276.801697 406.271729,277.175690 406.242462,277.547577 
	C406.241669,277.557983 405.951843,277.545654 405.796783,277.543915 
	C405.801300,277.170135 405.805817,276.796387 406.045105,276.425293 
z"/>
<path fill="#264559" opacity="1.000000" stroke="none" 
	d="
M406.574829,308.044922 
	C406.198303,308.273865 405.824188,308.271698 405.452209,308.242584 
	C405.441895,308.241760 405.454193,307.951813 405.455933,307.796692 
	C405.829803,307.801147 406.203705,307.805603 406.574829,308.044922 
z"/>
<path fill="#264559" opacity="1.000000" stroke="none" 
	d="
M397.424774,283.954987 
	C397.801453,283.725983 398.175751,283.728180 398.547913,283.757416 
	C398.558289,283.758209 398.545929,284.048218 398.544189,284.203400 
	C398.170166,284.198914 397.796112,284.194427 397.424774,283.954987 
z"/>
<path fill="#264559" opacity="1.000000" stroke="none" 
	d="
M402.044983,275.424957 
	C402.273895,275.801514 402.271637,276.175690 402.242462,276.547729 
	C402.241638,276.558105 401.951752,276.545776 401.796631,276.544006 
	C401.801117,276.170105 401.805603,275.796173 402.044983,275.424957 
z"/>
<path fill="#223F54" opacity="1.000000" stroke="none" 
	d="
M81.485092,208.893845 
	C81.595543,205.560547 81.706001,202.227249 82.302078,198.446411 
	C84.315254,198.001175 85.842796,198.003479 87.506866,198.451141 
	C87.771103,203.285339 87.898811,207.674194 87.941246,212.397476 
	C87.817741,213.191055 87.779503,213.650177 87.589066,214.256149 
	C87.536087,214.906937 87.635307,215.410904 87.751846,216.236206 
	C87.822906,216.980896 87.876648,217.404221 87.816414,218.271881 
	C87.606903,221.131226 87.511375,223.546249 87.089531,225.992645 
	C85.587791,227.771652 84.412361,229.519302 82.915016,231.745575 
	C85.011734,232.341492 86.235374,232.689255 87.568558,233.490662 
	C87.678085,243.987885 87.678085,254.031479 87.678085,264.520447 
	C104.912796,264.520447 121.447502,264.520447 137.982208,264.520447 
	C137.988464,266.076080 137.994736,267.631683 137.537323,269.662201 
	C122.091820,270.142975 107.109970,270.141602 92.128159,270.163208 
	C90.062668,270.166199 87.552254,269.562225 87.313232,273.036499 
	C87.230843,273.737854 87.391441,274.380402 87.645233,275.481140 
	C87.700478,284.953308 87.662514,293.967316 87.274117,303.120911 
	C87.171906,306.845795 87.420128,310.431061 87.766365,314.432495 
	C87.914490,315.417480 87.964592,315.986298 87.968170,316.946411 
	C87.978455,319.166229 88.035263,320.994781 88.092072,322.823364 
	C88.019157,327.572693 87.946251,332.322052 87.785004,337.530273 
	C86.085526,338.657257 84.474380,339.325317 82.510895,339.991760 
	C82.071495,335.655914 81.984428,331.321747 81.815887,326.531799 
	C81.771355,324.268158 81.808296,322.460236 81.748398,320.205688 
	C81.671852,303.549469 81.692146,287.339874 81.963036,270.537140 
	C83.345879,268.779846 85.430733,267.551666 85.358009,266.468384 
	C85.275742,265.243011 83.256798,264.147644 82.080002,262.995758 
	C81.983345,247.328583 81.886681,231.661423 81.783463,215.176117 
	C81.692841,213.619720 81.608788,212.881439 81.614120,211.739258 
	C81.630707,210.521515 81.557899,209.707672 81.485092,208.893845 
z"/>
<path fill="#2B485D" opacity="1.000000" stroke="none" 
	d="
M81.870140,263.351624 
	C83.256798,264.147644 85.275742,265.243011 85.358009,266.468384 
	C85.430733,267.551666 83.345879,268.779846 81.869247,270.092712 
	C79.758469,270.200653 77.992058,270.159882 75.938110,270.025024 
	C75.129715,268.522186 74.608856,267.113464 74.024025,265.269714 
	C76.526794,264.458923 79.093536,264.083221 81.870140,263.351624 
z"/>
<path fill="#C6973B" opacity="1.000000" stroke="none" 
	d="
M281.655823,297.037415 
	C281.742249,296.263153 281.828644,295.488861 282.347778,294.396698 
	C288.251434,296.445618 293.710876,298.839478 299.195740,301.173706 
	C311.062042,306.223816 322.941406,311.243378 334.815430,316.275452 
	C334.856720,318.220612 334.898010,320.165771 334.862610,322.516357 
	C317.442566,315.297150 300.099243,307.672485 282.404785,299.970032 
	C281.971649,299.462006 281.889679,299.031769 281.795105,298.050079 
	C281.782471,297.498657 281.655823,297.037415 281.655823,297.037415 
z"/>
<path fill="#C69737" opacity="1.000000" stroke="none" 
	d="
M88.438232,322.761414 
	C88.035263,320.994781 87.978455,319.166229 88.361649,316.908691 
	C90.800018,315.676910 92.822250,314.928406 94.792938,314.062561 
	C110.136810,307.321289 125.470757,300.557404 140.807770,293.800507 
	C140.860016,294.922516 140.912262,296.044495 141.029205,297.583557 
	C141.044693,298.574677 140.995483,299.148773 140.887314,299.994995 
	C127.440094,306.044800 114.052544,311.824127 100.663094,317.599091 
	C96.706314,319.305664 92.744118,320.999725 88.438232,322.761414 
z"/>
<path fill="#F4F3EC" opacity="1.000000" stroke="none" 
	d="
M334.877411,315.782135 
	C322.941406,311.243378 311.062042,306.223816 299.195740,301.173706 
	C293.710876,298.839478 288.251434,296.445618 282.419189,294.012787 
	C281.935944,290.267822 281.813934,286.588867 281.598602,282.458435 
	C281.575653,280.280975 281.646088,278.554993 281.600708,276.410461 
	C281.636169,274.194427 281.787384,272.396942 281.958344,270.364685 
	C299.548584,270.364685 316.952271,270.364685 334.939392,270.364685 
	C334.939392,285.482056 334.939392,300.385437 334.877411,315.782135 
z"/>
<path fill="#F5F3EC" opacity="1.000000" stroke="none" 
	d="
M281.743103,263.405151 
	C281.553833,261.608276 281.631714,260.209534 281.599976,258.402466 
	C281.598785,252.457901 281.707214,246.921707 282.350983,240.897461 
	C285.182495,239.475967 287.493500,238.577209 289.772430,237.603455 
	C304.809387,231.178513 319.839417,224.737396 334.906433,218.536224 
	C334.945465,219.094986 335.041962,219.388733 335.148499,220.131104 
	C335.130554,230.402710 335.194733,240.195312 335.258911,249.987930 
	C335.258911,254.601883 335.258911,259.215851 335.258911,264.446808 
	C324.010193,264.446808 313.414429,264.524261 302.820435,264.419281 
	C295.882355,264.350494 288.946838,264.017761 281.743103,263.405151 
z"/>
<path fill="#1E3B4F" opacity="1.000000" stroke="none" 
	d="
M335.717346,249.988464 
	C335.194733,240.195312 335.130554,230.402710 335.550507,220.240585 
	C337.597321,220.253418 339.160034,220.635757 340.722717,221.018097 
	C340.799103,230.304764 340.875458,239.591415 340.865601,249.322937 
	C339.244843,249.841553 337.710297,249.915283 335.717346,249.988464 
z"/>
<path fill="#F4F3EC" opacity="1.000000" stroke="none" 
	d="
M88.026520,212.063034 
	C87.898811,207.674194 87.771103,203.285339 87.637634,197.998627 
	C87.460487,183.062698 87.289101,169.024658 87.117714,154.986603 
	C87.326195,153.745560 87.534676,152.504532 87.868309,150.518478 
	C95.081108,157.556686 101.838524,164.119797 108.561501,170.718033 
	C118.427727,180.401184 128.365509,190.015427 138.026993,199.899292 
	C139.643524,201.553055 140.745193,204.395813 140.832962,206.736115 
	C141.163544,215.551773 140.976959,224.386841 140.549500,233.609924 
	C139.500549,233.769592 138.878677,233.551620 138.272842,233.295731 
	C121.523071,226.220505 104.774925,219.141464 88.026520,212.063034 
z"/>
<path fill="#F4F2EC" opacity="1.000000" stroke="none" 
	d="
M140.896851,293.353271 
	C125.470757,300.557404 110.136810,307.321289 94.792938,314.062561 
	C92.822250,314.928406 90.800018,315.676910 88.408173,316.517456 
	C87.964592,315.986298 87.914490,315.417480 87.874985,313.983734 
	C87.798584,309.739685 87.711563,306.360504 87.624550,302.981354 
	C87.662514,293.967316 87.700478,284.953308 87.751770,275.145874 
	C87.695473,273.894257 87.625854,273.436005 87.556229,272.977753 
	C87.552254,269.562225 90.062668,270.166199 92.128159,270.163208 
	C107.109970,270.141602 122.091820,270.142975 137.535522,270.052124 
	C140.619217,269.966461 141.078278,271.473633 141.031540,273.785034 
	C140.902679,280.156403 140.986313,286.532104 140.896851,293.353271 
z"/>
<path fill="#F6F4ED" opacity="1.000000" stroke="none" 
	d="
M87.415848,225.961258 
	C87.511375,223.546249 87.606903,221.131226 88.177696,218.351700 
	C106.036018,225.407761 123.419067,232.828354 140.802124,240.248932 
	C140.896347,247.309250 141.078369,254.370712 140.985580,261.428558 
	C140.972382,262.432495 139.625061,263.418884 138.438690,264.466919 
	C121.447502,264.520447 104.912796,264.520447 87.678085,264.520447 
	C87.678085,254.031479 87.678085,243.987885 87.690002,233.060501 
	C87.606560,230.104889 87.511200,228.033066 87.415848,225.961258 
z"/>
<path fill="#C6973B" opacity="1.000000" stroke="none" 
	d="
M140.863525,239.811050 
	C123.419067,232.828354 106.036018,225.407761 88.291679,217.907379 
	C87.876648,217.404221 87.822906,216.980896 87.828842,215.939529 
	C87.839439,214.917435 87.790359,214.513382 87.741272,214.109314 
	C87.779503,213.650177 87.817741,213.191055 87.941254,212.397476 
	C104.774925,219.141464 121.523071,226.220505 138.272842,233.295731 
	C138.878677,233.551620 139.500549,233.769592 140.465179,234.081955 
	C140.851929,235.896835 140.888443,237.635010 140.863525,239.811050 
z"/>
<path fill="#1E3B4F" opacity="1.000000" stroke="none" 
	d="
M86.737236,154.991486 
	C87.289101,169.024658 87.460487,183.062698 87.501114,197.553253 
	C85.842796,198.003479 84.315254,198.001175 82.403267,197.998718 
	C81.936829,184.305359 81.854828,170.612122 81.865814,156.457916 
	C83.424782,155.663422 84.890770,155.329895 86.737236,154.991486 
z"/>
<path fill="#214255" opacity="1.000000" stroke="none" 
	d="
M291.574890,185.783356 
	C291.664734,185.060974 292.128265,184.502640 292.811981,183.778198 
	C293.533203,184.432800 294.034271,185.253525 294.535339,186.074249 
	C293.673096,186.031967 292.810822,185.989685 291.574890,185.783356 
z"/>
<path fill="#2B485D" opacity="1.000000" stroke="none" 
	d="
M146.728851,127.735519 
	C146.374420,127.776604 146.299911,127.531654 146.551086,127.137009 
	C146.661224,127.041786 146.793243,127.503967 146.728851,127.735519 
z"/>
<path fill="#2B485D" opacity="1.000000" stroke="none" 
	d="
M141.239410,103.885910 
	C141.093323,103.974236 140.979675,103.498070 141.031921,103.259125 
	C141.184616,103.279320 141.285065,103.538452 141.239410,103.885910 
z"/>
<path fill="#C69737" opacity="1.000000" stroke="none" 
	d="
M334.871704,218.301575 
	C319.839417,224.737396 304.809387,231.178513 289.772430,237.603455 
	C287.493500,238.577209 285.182495,239.475967 282.497498,240.485840 
	C282.024170,240.281647 281.939636,240.000992 281.870728,238.944946 
	C281.821442,237.465332 281.756500,236.761108 281.691559,236.056870 
	C281.722015,235.700836 281.752441,235.344803 281.849976,234.732681 
	C296.576782,228.222244 311.236877,221.968857 325.895844,215.712769 
	C328.645630,214.539230 331.390900,213.355118 334.554962,212.496048 
	C334.938354,214.644653 334.905029,216.473114 334.871704,218.301575 
z"/>
<path fill="#687D87" opacity="1.000000" stroke="none" 
	d="
M281.545349,236.044754 
	C281.756500,236.761108 281.821442,237.465332 281.796539,238.511581 
	C281.511627,238.119766 281.316589,237.385925 281.113953,236.352448 
	C281.106384,236.052811 281.399139,236.032639 281.545349,236.044754 
z"/>
<path fill="#364F5F" opacity="1.000000" stroke="none" 
	d="
M281.548157,297.133728 
	C281.655823,297.037415 281.782471,297.498657 281.719238,297.729248 
	C281.372986,297.768768 281.301147,297.525513 281.548157,297.133728 
z"/>
<path fill="#C69737" opacity="1.000000" stroke="none" 
	d="
M81.179527,208.772018 
	C81.557899,209.707672 81.630707,210.521515 81.452179,211.943268 
	C80.749763,213.066162 80.298676,213.581131 79.847580,214.096100 
	C64.854408,207.580551 49.861252,201.065018 34.725628,194.286499 
	C34.987473,192.841751 35.391781,191.659988 35.977646,190.053268 
	C40.242065,191.333099 44.324928,193.037888 48.703426,195.296844 
	C49.178555,196.734756 49.358044,197.618500 49.537533,198.502243 
	C49.795509,198.526230 50.053486,198.550217 50.311462,198.574188 
	C50.536278,197.737442 50.761089,196.900681 50.985905,196.063934 
	C60.948589,200.259354 70.911278,204.454773 81.179527,208.772018 
z"/>
<path fill="#C39A43" opacity="1.000000" stroke="none" 
	d="
M79.998718,214.315155 
	C80.298676,213.581131 80.749763,213.066162 81.362793,212.347168 
	C81.608788,212.881439 81.692841,213.619720 81.692131,214.721191 
	C81.121529,214.901001 80.635696,214.717606 79.998718,214.315155 
z"/>
<path fill="#264559" opacity="1.000000" stroke="none" 
	d="
M334.906403,218.536224 
	C334.905029,216.473114 334.938354,214.644653 334.900574,212.414307 
	C334.897064,207.640930 334.964630,203.269409 335.130676,198.441727 
	C336.798431,197.984619 338.367706,197.983704 340.328918,197.982391 
	C340.807190,201.375854 340.893524,204.769684 340.981201,209.038361 
	C341.043671,211.621902 341.104767,213.330612 341.165894,215.039322 
	C341.084259,216.753220 341.002625,218.467117 340.821838,220.599548 
	C339.160034,220.635757 337.597321,220.253418 335.632629,219.761597 
	C335.041962,219.388733 334.945465,219.094986 334.906403,218.536224 
z"/>
<path fill="#C39A43" opacity="1.000000" stroke="none" 
	d="
M341.437439,215.018066 
	C341.104767,213.330612 341.043671,211.621902 341.062927,209.495941 
	C341.900513,208.818436 342.657776,208.558167 343.713989,208.260742 
	C343.681976,209.935516 343.350983,211.647446 343.022400,213.742279 
	C342.586182,214.415741 342.147614,214.706268 341.437439,215.018066 
z"/>
<path fill="#C5983F" opacity="1.000000" stroke="none" 
	d="
M50.798367,195.845093 
	C50.761089,196.900681 50.536278,197.737442 50.311462,198.574188 
	C50.053486,198.550217 49.795509,198.526230 49.537533,198.502243 
	C49.358044,197.618500 49.178555,196.734756 48.997131,195.501038 
	C49.533745,195.309464 50.072285,195.467865 50.798367,195.845093 
z"/>
<path fill="#2B485D" opacity="1.000000" stroke="none" 
	d="
M87.089523,225.992645 
	C87.511200,228.033066 87.606560,230.104889 87.580475,232.606857 
	C86.235374,232.689255 85.011734,232.341492 82.915016,231.745575 
	C84.412361,229.519302 85.587791,227.771652 87.089523,225.992645 
z"/>
<path fill="#2B485D" opacity="1.000000" stroke="none" 
	d="
M87.274117,303.120911 
	C87.711563,306.360504 87.798584,309.739685 87.776978,313.567596 
	C87.420128,310.431061 87.171906,306.845795 87.274117,303.120911 
z"/>
<path fill="#2B485D" opacity="1.000000" stroke="none" 
	d="
M87.313232,273.036499 
	C87.625854,273.436005 87.695473,273.894257 87.658569,274.687744 
	C87.391441,274.380402 87.230843,273.737854 87.313232,273.036499 
z"/>
<path fill="#687D87" opacity="1.000000" stroke="none" 
	d="
M87.589066,214.256149 
	C87.790359,214.513382 87.839439,214.917435 87.811523,215.618179 
	C87.635307,215.410904 87.536087,214.906937 87.589066,214.256149 
z"/>
</svg>